ISO-10303-21;
HEADER;
/* Generated by software containing ST-Developer
 * from STEP Tools, Inc. (www.steptools.com) 
 */

FILE_DESCRIPTION(
/* description */ (''),
/* implementation_level */ '2;1');

FILE_NAME(
/* name */ 'Bottom.step',
/* time_stamp */ '2026-07-28T17:00:24-05:00',
/* author */ (''),
/* organization */ (''),
/* preprocessor_version */ 'ST-DEVELOPER v20.1',
/* originating_system */ 'Autodesk Translation Framework v15.8.0.0',
/* authorisation */ '');

FILE_SCHEMA (('AUTOMOTIVE_DESIGN { 1 0 10303 214 3 1 1 }'));
ENDSEC;

DATA;
#10=MECHANICAL_DESIGN_GEOMETRIC_PRESENTATION_REPRESENTATION('',(#13),#1061);
#11=SHAPE_REPRESENTATION_RELATIONSHIP('SRR','None',#1068,#12);
#12=ADVANCED_BREP_SHAPE_REPRESENTATION('',(#14),#1060);
#13=STYLED_ITEM('',(#1077),#14);
#14=MANIFOLD_SOLID_BREP('Body1',#637);
#15=FACE_BOUND('',#96,.T.);
#16=FACE_BOUND('',#97,.T.);
#17=FACE_BOUND('',#98,.T.);
#18=FACE_BOUND('',#99,.T.);
#19=FACE_BOUND('',#102,.T.);
#20=FACE_BOUND('',#106,.T.);
#21=FACE_BOUND('',#108,.T.);
#22=FACE_BOUND('',#110,.T.);
#23=FACE_BOUND('',#112,.T.);
#24=FACE_BOUND('',#132,.T.);
#25=FACE_BOUND('',#133,.T.);
#26=FACE_BOUND('',#134,.T.);
#27=FACE_BOUND('',#135,.T.);
#28=PLANE('',#654);
#29=PLANE('',#655);
#30=PLANE('',#656);
#31=PLANE('',#660);
#32=PLANE('',#661);
#33=PLANE('',#662);
#34=PLANE('',#667);
#35=PLANE('',#668);
#36=PLANE('',#669);
#37=PLANE('',#670);
#38=PLANE('',#671);
#39=PLANE('',#674);
#40=PLANE('',#677);
#41=PLANE('',#680);
#42=PLANE('',#691);
#43=PLANE('',#692);
#44=PLANE('',#695);
#45=PLANE('',#696);
#46=PLANE('',#699);
#47=PLANE('',#700);
#48=PLANE('',#701);
#49=PLANE('',#702);
#50=PLANE('',#703);
#51=PLANE('',#704);
#52=PLANE('',#705);
#53=FACE_OUTER_BOUND('',#88,.T.);
#54=FACE_OUTER_BOUND('',#89,.T.);
#55=FACE_OUTER_BOUND('',#90,.T.);
#56=FACE_OUTER_BOUND('',#91,.T.);
#57=FACE_OUTER_BOUND('',#92,.T.);
#58=FACE_OUTER_BOUND('',#93,.T.);
#59=FACE_OUTER_BOUND('',#94,.T.);
#60=FACE_OUTER_BOUND('',#95,.T.);
#61=FACE_OUTER_BOUND('',#100,.T.);
#62=FACE_OUTER_BOUND('',#101,.T.);
#63=FACE_OUTER_BOUND('',#103,.T.);
#64=FACE_OUTER_BOUND('',#104,.T.);
#65=FACE_OUTER_BOUND('',#105,.T.);
#66=FACE_OUTER_BOUND('',#107,.T.);
#67=FACE_OUTER_BOUND('',#109,.T.);
#68=FACE_OUTER_BOUND('',#111,.T.);
#69=FACE_OUTER_BOUND('',#113,.T.);
#70=FACE_OUTER_BOUND('',#114,.T.);
#71=FACE_OUTER_BOUND('',#115,.T.);
#72=FACE_OUTER_BOUND('',#116,.T.);
#73=FACE_OUTER_BOUND('',#117,.T.);
#74=FACE_OUTER_BOUND('',#118,.T.);
#75=FACE_OUTER_BOUND('',#119,.T.);
#76=FACE_OUTER_BOUND('',#120,.T.);
#77=FACE_OUTER_BOUND('',#121,.T.);
#78=FACE_OUTER_BOUND('',#122,.T.);
#79=FACE_OUTER_BOUND('',#123,.T.);
#80=FACE_OUTER_BOUND('',#124,.T.);
#81=FACE_OUTER_BOUND('',#125,.T.);
#82=FACE_OUTER_BOUND('',#126,.T.);
#83=FACE_OUTER_BOUND('',#127,.T.);
#84=FACE_OUTER_BOUND('',#128,.T.);
#85=FACE_OUTER_BOUND('',#129,.T.);
#86=FACE_OUTER_BOUND('',#130,.T.);
#87=FACE_OUTER_BOUND('',#131,.T.);
#88=EDGE_LOOP('',(#424,#425,#426,#427));
#89=EDGE_LOOP('',(#428,#429,#430,#431));
#90=EDGE_LOOP('',(#432,#433,#434,#435));
#91=EDGE_LOOP('',(#436,#437,#438,#439));
#92=EDGE_LOOP('',(#440,#441,#442,#443));
#93=EDGE_LOOP('',(#444,#445,#446,#447));
#94=EDGE_LOOP('',(#448,#449,#450,#451));
#95=EDGE_LOOP('',(#452,#453,#454,#455,#456,#457,#458,#459,#460,#461,#462,
#463));
#96=EDGE_LOOP('',(#464));
#97=EDGE_LOOP('',(#465));
#98=EDGE_LOOP('',(#466));
#99=EDGE_LOOP('',(#467));
#100=EDGE_LOOP('',(#468,#469,#470,#471,#472,#473,#474,#475,#476,#477,#478,
#479));
#101=EDGE_LOOP('',(#480,#481,#482,#483));
#102=EDGE_LOOP('',(#484,#485,#486,#487));
#103=EDGE_LOOP('',(#488,#489,#490,#491));
#104=EDGE_LOOP('',(#492,#493,#494,#495));
#105=EDGE_LOOP('',(#496));
#106=EDGE_LOOP('',(#497));
#107=EDGE_LOOP('',(#498));
#108=EDGE_LOOP('',(#499));
#109=EDGE_LOOP('',(#500));
#110=EDGE_LOOP('',(#501));
#111=EDGE_LOOP('',(#502));
#112=EDGE_LOOP('',(#503));
#113=EDGE_LOOP('',(#504,#505,#506,#507));
#114=EDGE_LOOP('',(#508,#509,#510,#511));
#115=EDGE_LOOP('',(#512,#513,#514,#515));
#116=EDGE_LOOP('',(#516,#517,#518,#519));
#117=EDGE_LOOP('',(#520,#521,#522,#523));
#118=EDGE_LOOP('',(#524,#525,#526,#527));
#119=EDGE_LOOP('',(#528,#529,#530,#531));
#120=EDGE_LOOP('',(#532,#533,#534,#535));
#121=EDGE_LOOP('',(#536,#537,#538,#539,#540,#541,#542,#543,#544,#545,#546,
#547));
#122=EDGE_LOOP('',(#548,#549,#550,#551));
#123=EDGE_LOOP('',(#552,#553,#554,#555));
#124=EDGE_LOOP('',(#556,#557,#558,#559));
#125=EDGE_LOOP('',(#560,#561,#562,#563));
#126=EDGE_LOOP('',(#564,#565,#566,#567));
#127=EDGE_LOOP('',(#568,#569,#570,#571));
#128=EDGE_LOOP('',(#572,#573,#574,#575));
#129=EDGE_LOOP('',(#576,#577,#578,#579));
#130=EDGE_LOOP('',(#580,#581,#582,#583));
#131=EDGE_LOOP('',(#584,#585,#586,#587));
#132=EDGE_LOOP('',(#588));
#133=EDGE_LOOP('',(#589));
#134=EDGE_LOOP('',(#590));
#135=EDGE_LOOP('',(#591));
#136=LINE('',#888,#200);
#137=LINE('',#891,#201);
#138=LINE('',#894,#202);
#139=LINE('',#896,#203);
#140=LINE('',#897,#204);
#141=LINE('',#900,#205);
#142=LINE('',#902,#206);
#143=LINE('',#903,#207);
#144=LINE('',#907,#208);
#145=LINE('',#909,#209);
#146=LINE('',#911,#210);
#147=LINE('',#912,#211);
#148=LINE('',#918,#212);
#149=LINE('',#920,#213);
#150=LINE('',#921,#214);
#151=LINE('',#924,#215);
#152=LINE('',#926,#216);
#153=LINE('',#927,#217);
#154=LINE('',#930,#218);
#155=LINE('',#932,#219);
#156=LINE('',#934,#220);
#157=LINE('',#936,#221);
#158=LINE('',#937,#222);
#159=LINE('',#939,#223);
#160=LINE('',#941,#224);
#161=LINE('',#943,#225);
#162=LINE('',#945,#226);
#163=LINE('',#946,#227);
#164=LINE('',#957,#228);
#165=LINE('',#959,#229);
#166=LINE('',#960,#230);
#167=LINE('',#964,#231);
#168=LINE('',#966,#232);
#169=LINE('',#968,#233);
#170=LINE('',#969,#234);
#171=LINE('',#972,#235);
#172=LINE('',#974,#236);
#173=LINE('',#976,#237);
#174=LINE('',#977,#238);
#175=LINE('',#980,#239);
#176=LINE('',#982,#240);
#177=LINE('',#983,#241);
#178=LINE('',#986,#242);
#179=LINE('',#987,#243);
#180=LINE('',#1011,#244);
#181=LINE('',#1015,#245);
#182=LINE('',#1019,#246);
#183=LINE('',#1023,#247);
#184=LINE('',#1025,#248);
#185=LINE('',#1026,#249);
#186=LINE('',#1028,#250);
#187=LINE('',#1030,#251);
#188=LINE('',#1032,#252);
#189=LINE('',#1034,#253);
#190=LINE('',#1037,#254);
#191=LINE('',#1039,#255);
#192=LINE('',#1042,#256);
#193=LINE('',#1043,#257);
#194=LINE('',#1046,#258);
#195=LINE('',#1047,#259);
#196=LINE('',#1049,#260);
#197=LINE('',#1052,#261);
#198=LINE('',#1053,#262);
#199=LINE('',#1055,#263);
#200=VECTOR('',#712,10.);
#201=VECTOR('',#715,10.);
#202=VECTOR('',#718,10.);
#203=VECTOR('',#719,10.);
#204=VECTOR('',#720,10.);
#205=VECTOR('',#723,10.);
#206=VECTOR('',#724,10.);
#207=VECTOR('',#725,10.);
#208=VECTOR('',#728,10.);
#209=VECTOR('',#729,10.);
#210=VECTOR('',#730,10.);
#211=VECTOR('',#731,10.);
#212=VECTOR('',#738,10.);
#213=VECTOR('',#741,10.);
#214=VECTOR('',#742,10.);
#215=VECTOR('',#745,10.);
#216=VECTOR('',#746,10.);
#217=VECTOR('',#747,10.);
#218=VECTOR('',#750,10.);
#219=VECTOR('',#751,10.);
#220=VECTOR('',#752,10.);
#221=VECTOR('',#753,10.);
#222=VECTOR('',#754,10.);
#223=VECTOR('',#755,10.);
#224=VECTOR('',#756,10.);
#225=VECTOR('',#757,10.);
#226=VECTOR('',#758,10.);
#227=VECTOR('',#759,10.);
#228=VECTOR('',#770,10.);
#229=VECTOR('',#771,10.);
#230=VECTOR('',#772,10.);
#231=VECTOR('',#775,10.);
#232=VECTOR('',#776,10.);
#233=VECTOR('',#777,10.);
#234=VECTOR('',#778,10.);
#235=VECTOR('',#779,10.);
#236=VECTOR('',#780,10.);
#237=VECTOR('',#781,10.);
#238=VECTOR('',#782,10.);
#239=VECTOR('',#785,10.);
#240=VECTOR('',#786,10.);
#241=VECTOR('',#787,10.);
#242=VECTOR('',#790,10.);
#243=VECTOR('',#791,10.);
#244=VECTOR('',#820,3.);
#245=VECTOR('',#825,3.);
#246=VECTOR('',#830,2.99999999999999);
#247=VECTOR('',#835,3.00000000000001);
#248=VECTOR('',#838,10.);
#249=VECTOR('',#839,10.);
#250=VECTOR('',#842,10.);
#251=VECTOR('',#845,1.99999999999999);
#252=VECTOR('',#848,2.);
#253=VECTOR('',#851,10.);
#254=VECTOR('',#856,2.);
#255=VECTOR('',#859,1.99999999999999);
#256=VECTOR('',#862,10.);
#257=VECTOR('',#863,10.);
#258=VECTOR('',#866,10.);
#259=VECTOR('',#867,10.);
#260=VECTOR('',#870,10.);
#261=VECTOR('',#873,10.);
#262=VECTOR('',#874,10.);
#263=VECTOR('',#877,10.);
#264=CIRCLE('',#652,2.551);
#265=CIRCLE('',#653,2.551);
#266=CIRCLE('',#658,2.551);
#267=CIRCLE('',#659,2.551);
#268=CIRCLE('',#663,1.99999999999999);
#269=CIRCLE('',#664,2.);
#270=CIRCLE('',#665,2.);
#271=CIRCLE('',#666,1.99999999999999);
#272=CIRCLE('',#672,2.99999999999999);
#273=CIRCLE('',#673,1.99999999999999);
#274=CIRCLE('',#675,3.);
#275=CIRCLE('',#676,2.);
#276=CIRCLE('',#678,3.);
#277=CIRCLE('',#679,2.);
#278=CIRCLE('',#681,3.00000000000001);
#279=CIRCLE('',#682,1.99999999999999);
#280=CIRCLE('',#684,3.);
#281=CIRCLE('',#686,3.);
#282=CIRCLE('',#688,2.99999999999999);
#283=CIRCLE('',#690,3.00000000000001);
#284=VERTEX_POINT('',#884);
#285=VERTEX_POINT('',#885);
#286=VERTEX_POINT('',#887);
#287=VERTEX_POINT('',#889);
#288=VERTEX_POINT('',#893);
#289=VERTEX_POINT('',#895);
#290=VERTEX_POINT('',#899);
#291=VERTEX_POINT('',#901);
#292=VERTEX_POINT('',#905);
#293=VERTEX_POINT('',#906);
#294=VERTEX_POINT('',#908);
#295=VERTEX_POINT('',#910);
#296=VERTEX_POINT('',#914);
#297=VERTEX_POINT('',#916);
#298=VERTEX_POINT('',#923);
#299=VERTEX_POINT('',#925);
#300=VERTEX_POINT('',#929);
#301=VERTEX_POINT('',#931);
#302=VERTEX_POINT('',#933);
#303=VERTEX_POINT('',#935);
#304=VERTEX_POINT('',#938);
#305=VERTEX_POINT('',#940);
#306=VERTEX_POINT('',#942);
#307=VERTEX_POINT('',#944);
#308=VERTEX_POINT('',#947);
#309=VERTEX_POINT('',#949);
#310=VERTEX_POINT('',#951);
#311=VERTEX_POINT('',#953);
#312=VERTEX_POINT('',#956);
#313=VERTEX_POINT('',#958);
#314=VERTEX_POINT('',#962);
#315=VERTEX_POINT('',#963);
#316=VERTEX_POINT('',#965);
#317=VERTEX_POINT('',#967);
#318=VERTEX_POINT('',#970);
#319=VERTEX_POINT('',#971);
#320=VERTEX_POINT('',#973);
#321=VERTEX_POINT('',#975);
#322=VERTEX_POINT('',#979);
#323=VERTEX_POINT('',#981);
#324=VERTEX_POINT('',#985);
#325=VERTEX_POINT('',#989);
#326=VERTEX_POINT('',#991);
#327=VERTEX_POINT('',#994);
#328=VERTEX_POINT('',#996);
#329=VERTEX_POINT('',#999);
#330=VERTEX_POINT('',#1001);
#331=VERTEX_POINT('',#1004);
#332=VERTEX_POINT('',#1006);
#333=VERTEX_POINT('',#1009);
#334=VERTEX_POINT('',#1013);
#335=VERTEX_POINT('',#1017);
#336=VERTEX_POINT('',#1021);
#337=VERTEX_POINT('',#1041);
#338=VERTEX_POINT('',#1045);
#339=VERTEX_POINT('',#1051);
#340=EDGE_CURVE('',#284,#285,#264,.T.);
#341=EDGE_CURVE('',#286,#284,#136,.T.);
#342=EDGE_CURVE('',#287,#286,#265,.T.);
#343=EDGE_CURVE('',#287,#285,#137,.T.);
#344=EDGE_CURVE('',#285,#288,#138,.T.);
#345=EDGE_CURVE('',#289,#287,#139,.T.);
#346=EDGE_CURVE('',#289,#288,#140,.T.);
#347=EDGE_CURVE('',#288,#290,#141,.T.);
#348=EDGE_CURVE('',#291,#289,#142,.T.);
#349=EDGE_CURVE('',#290,#291,#143,.T.);
#350=EDGE_CURVE('',#292,#293,#144,.T.);
#351=EDGE_CURVE('',#294,#292,#145,.T.);
#352=EDGE_CURVE('',#295,#294,#146,.T.);
#353=EDGE_CURVE('',#295,#293,#147,.T.);
#354=EDGE_CURVE('',#293,#296,#266,.T.);
#355=EDGE_CURVE('',#297,#295,#267,.T.);
#356=EDGE_CURVE('',#297,#296,#148,.T.);
#357=EDGE_CURVE('',#296,#284,#149,.T.);
#358=EDGE_CURVE('',#286,#297,#150,.T.);
#359=EDGE_CURVE('',#298,#292,#151,.T.);
#360=EDGE_CURVE('',#299,#298,#152,.T.);
#361=EDGE_CURVE('',#294,#299,#153,.T.);
#362=EDGE_CURVE('',#291,#300,#154,.T.);
#363=EDGE_CURVE('',#300,#301,#155,.T.);
#364=EDGE_CURVE('',#301,#302,#156,.T.);
#365=EDGE_CURVE('',#302,#303,#157,.T.);
#366=EDGE_CURVE('',#303,#299,#158,.T.);
#367=EDGE_CURVE('',#298,#304,#159,.T.);
#368=EDGE_CURVE('',#304,#305,#160,.T.);
#369=EDGE_CURVE('',#305,#306,#161,.T.);
#370=EDGE_CURVE('',#306,#307,#162,.T.);
#371=EDGE_CURVE('',#307,#290,#163,.T.);
#372=EDGE_CURVE('',#308,#308,#268,.T.);
#373=EDGE_CURVE('',#309,#309,#269,.T.);
#374=EDGE_CURVE('',#310,#310,#270,.T.);
#375=EDGE_CURVE('',#311,#311,#271,.T.);
#376=EDGE_CURVE('',#312,#303,#164,.T.);
#377=EDGE_CURVE('',#313,#312,#165,.T.);
#378=EDGE_CURVE('',#313,#300,#166,.T.);
#379=EDGE_CURVE('',#314,#315,#167,.T.);
#380=EDGE_CURVE('',#316,#314,#168,.T.);
#381=EDGE_CURVE('',#317,#316,#169,.T.);
#382=EDGE_CURVE('',#315,#317,#170,.T.);
#383=EDGE_CURVE('',#318,#319,#171,.T.);
#384=EDGE_CURVE('',#320,#318,#172,.T.);
#385=EDGE_CURVE('',#321,#320,#173,.T.);
#386=EDGE_CURVE('',#319,#321,#174,.T.);
#387=EDGE_CURVE('',#322,#318,#175,.T.);
#388=EDGE_CURVE('',#323,#322,#176,.T.);
#389=EDGE_CURVE('',#323,#320,#177,.T.);
#390=EDGE_CURVE('',#324,#319,#178,.T.);
#391=EDGE_CURVE('',#322,#324,#179,.T.);
#392=EDGE_CURVE('',#325,#325,#272,.T.);
#393=EDGE_CURVE('',#326,#326,#273,.T.);
#394=EDGE_CURVE('',#327,#327,#274,.T.);
#395=EDGE_CURVE('',#328,#328,#275,.T.);
#396=EDGE_CURVE('',#329,#329,#276,.T.);
#397=EDGE_CURVE('',#330,#330,#277,.T.);
#398=EDGE_CURVE('',#331,#331,#278,.T.);
#399=EDGE_CURVE('',#332,#332,#279,.T.);
#400=EDGE_CURVE('',#333,#333,#280,.T.);
#401=EDGE_CURVE('',#333,#329,#180,.T.);
#402=EDGE_CURVE('',#334,#334,#281,.T.);
#403=EDGE_CURVE('',#334,#327,#181,.T.);
#404=EDGE_CURVE('',#335,#335,#282,.T.);
#405=EDGE_CURVE('',#335,#325,#182,.T.);
#406=EDGE_CURVE('',#336,#336,#283,.T.);
#407=EDGE_CURVE('',#336,#331,#183,.T.);
#408=EDGE_CURVE('',#305,#314,#184,.T.);
#409=EDGE_CURVE('',#316,#304,#185,.T.);
#410=EDGE_CURVE('',#315,#306,#186,.T.);
#411=EDGE_CURVE('',#308,#332,#187,.T.);
#412=EDGE_CURVE('',#309,#328,#188,.T.);
#413=EDGE_CURVE('',#317,#307,#189,.T.);
#414=EDGE_CURVE('',#310,#330,#190,.T.);
#415=EDGE_CURVE('',#311,#326,#191,.T.);
#416=EDGE_CURVE('',#312,#337,#192,.T.);
#417=EDGE_CURVE('',#337,#302,#193,.T.);
#418=EDGE_CURVE('',#337,#338,#194,.T.);
#419=EDGE_CURVE('',#338,#301,#195,.T.);
#420=EDGE_CURVE('',#338,#313,#196,.T.);
#421=EDGE_CURVE('',#339,#321,#197,.T.);
#422=EDGE_CURVE('',#324,#339,#198,.T.);
#423=EDGE_CURVE('',#339,#323,#199,.T.);
#424=ORIENTED_EDGE('',*,*,#340,.F.);
#425=ORIENTED_EDGE('',*,*,#341,.F.);
#426=ORIENTED_EDGE('',*,*,#342,.F.);
#427=ORIENTED_EDGE('',*,*,#343,.T.);
#428=ORIENTED_EDGE('',*,*,#344,.F.);
#429=ORIENTED_EDGE('',*,*,#343,.F.);
#430=ORIENTED_EDGE('',*,*,#345,.F.);
#431=ORIENTED_EDGE('',*,*,#346,.T.);
#432=ORIENTED_EDGE('',*,*,#347,.F.);
#433=ORIENTED_EDGE('',*,*,#346,.F.);
#434=ORIENTED_EDGE('',*,*,#348,.F.);
#435=ORIENTED_EDGE('',*,*,#349,.F.);
#436=ORIENTED_EDGE('',*,*,#350,.F.);
#437=ORIENTED_EDGE('',*,*,#351,.F.);
#438=ORIENTED_EDGE('',*,*,#352,.F.);
#439=ORIENTED_EDGE('',*,*,#353,.T.);
#440=ORIENTED_EDGE('',*,*,#354,.F.);
#441=ORIENTED_EDGE('',*,*,#353,.F.);
#442=ORIENTED_EDGE('',*,*,#355,.F.);
#443=ORIENTED_EDGE('',*,*,#356,.T.);
#444=ORIENTED_EDGE('',*,*,#357,.F.);
#445=ORIENTED_EDGE('',*,*,#356,.F.);
#446=ORIENTED_EDGE('',*,*,#358,.F.);
#447=ORIENTED_EDGE('',*,*,#341,.T.);
#448=ORIENTED_EDGE('',*,*,#359,.F.);
#449=ORIENTED_EDGE('',*,*,#360,.F.);
#450=ORIENTED_EDGE('',*,*,#361,.F.);
#451=ORIENTED_EDGE('',*,*,#351,.T.);
#452=ORIENTED_EDGE('',*,*,#349,.T.);
#453=ORIENTED_EDGE('',*,*,#362,.T.);
#454=ORIENTED_EDGE('',*,*,#363,.T.);
#455=ORIENTED_EDGE('',*,*,#364,.T.);
#456=ORIENTED_EDGE('',*,*,#365,.T.);
#457=ORIENTED_EDGE('',*,*,#366,.T.);
#458=ORIENTED_EDGE('',*,*,#360,.T.);
#459=ORIENTED_EDGE('',*,*,#367,.T.);
#460=ORIENTED_EDGE('',*,*,#368,.T.);
#461=ORIENTED_EDGE('',*,*,#369,.T.);
#462=ORIENTED_EDGE('',*,*,#370,.T.);
#463=ORIENTED_EDGE('',*,*,#371,.T.);
#464=ORIENTED_EDGE('',*,*,#372,.T.);
#465=ORIENTED_EDGE('',*,*,#373,.T.);
#466=ORIENTED_EDGE('',*,*,#374,.T.);
#467=ORIENTED_EDGE('',*,*,#375,.T.);
#468=ORIENTED_EDGE('',*,*,#348,.T.);
#469=ORIENTED_EDGE('',*,*,#345,.T.);
#470=ORIENTED_EDGE('',*,*,#342,.T.);
#471=ORIENTED_EDGE('',*,*,#358,.T.);
#472=ORIENTED_EDGE('',*,*,#355,.T.);
#473=ORIENTED_EDGE('',*,*,#352,.T.);
#474=ORIENTED_EDGE('',*,*,#361,.T.);
#475=ORIENTED_EDGE('',*,*,#366,.F.);
#476=ORIENTED_EDGE('',*,*,#376,.F.);
#477=ORIENTED_EDGE('',*,*,#377,.F.);
#478=ORIENTED_EDGE('',*,*,#378,.T.);
#479=ORIENTED_EDGE('',*,*,#362,.F.);
#480=ORIENTED_EDGE('',*,*,#379,.F.);
#481=ORIENTED_EDGE('',*,*,#380,.F.);
#482=ORIENTED_EDGE('',*,*,#381,.F.);
#483=ORIENTED_EDGE('',*,*,#382,.F.);
#484=ORIENTED_EDGE('',*,*,#383,.F.);
#485=ORIENTED_EDGE('',*,*,#384,.F.);
#486=ORIENTED_EDGE('',*,*,#385,.F.);
#487=ORIENTED_EDGE('',*,*,#386,.F.);
#488=ORIENTED_EDGE('',*,*,#384,.T.);
#489=ORIENTED_EDGE('',*,*,#387,.F.);
#490=ORIENTED_EDGE('',*,*,#388,.F.);
#491=ORIENTED_EDGE('',*,*,#389,.T.);
#492=ORIENTED_EDGE('',*,*,#383,.T.);
#493=ORIENTED_EDGE('',*,*,#390,.F.);
#494=ORIENTED_EDGE('',*,*,#391,.F.);
#495=ORIENTED_EDGE('',*,*,#387,.T.);
#496=ORIENTED_EDGE('',*,*,#392,.F.);
#497=ORIENTED_EDGE('',*,*,#393,.T.);
#498=ORIENTED_EDGE('',*,*,#394,.F.);
#499=ORIENTED_EDGE('',*,*,#395,.T.);
#500=ORIENTED_EDGE('',*,*,#396,.F.);
#501=ORIENTED_EDGE('',*,*,#397,.T.);
#502=ORIENTED_EDGE('',*,*,#398,.F.);
#503=ORIENTED_EDGE('',*,*,#399,.T.);
#504=ORIENTED_EDGE('',*,*,#400,.F.);
#505=ORIENTED_EDGE('',*,*,#401,.T.);
#506=ORIENTED_EDGE('',*,*,#396,.T.);
#507=ORIENTED_EDGE('',*,*,#401,.F.);
#508=ORIENTED_EDGE('',*,*,#402,.F.);
#509=ORIENTED_EDGE('',*,*,#403,.T.);
#510=ORIENTED_EDGE('',*,*,#394,.T.);
#511=ORIENTED_EDGE('',*,*,#403,.F.);
#512=ORIENTED_EDGE('',*,*,#404,.F.);
#513=ORIENTED_EDGE('',*,*,#405,.T.);
#514=ORIENTED_EDGE('',*,*,#392,.T.);
#515=ORIENTED_EDGE('',*,*,#405,.F.);
#516=ORIENTED_EDGE('',*,*,#406,.F.);
#517=ORIENTED_EDGE('',*,*,#407,.T.);
#518=ORIENTED_EDGE('',*,*,#398,.T.);
#519=ORIENTED_EDGE('',*,*,#407,.F.);
#520=ORIENTED_EDGE('',*,*,#408,.F.);
#521=ORIENTED_EDGE('',*,*,#368,.F.);
#522=ORIENTED_EDGE('',*,*,#409,.F.);
#523=ORIENTED_EDGE('',*,*,#380,.T.);
#524=ORIENTED_EDGE('',*,*,#410,.T.);
#525=ORIENTED_EDGE('',*,*,#369,.F.);
#526=ORIENTED_EDGE('',*,*,#408,.T.);
#527=ORIENTED_EDGE('',*,*,#379,.T.);
#528=ORIENTED_EDGE('',*,*,#372,.F.);
#529=ORIENTED_EDGE('',*,*,#411,.T.);
#530=ORIENTED_EDGE('',*,*,#399,.F.);
#531=ORIENTED_EDGE('',*,*,#411,.F.);
#532=ORIENTED_EDGE('',*,*,#373,.F.);
#533=ORIENTED_EDGE('',*,*,#412,.T.);
#534=ORIENTED_EDGE('',*,*,#395,.F.);
#535=ORIENTED_EDGE('',*,*,#412,.F.);
#536=ORIENTED_EDGE('',*,*,#347,.T.);
#537=ORIENTED_EDGE('',*,*,#371,.F.);
#538=ORIENTED_EDGE('',*,*,#413,.F.);
#539=ORIENTED_EDGE('',*,*,#381,.T.);
#540=ORIENTED_EDGE('',*,*,#409,.T.);
#541=ORIENTED_EDGE('',*,*,#367,.F.);
#542=ORIENTED_EDGE('',*,*,#359,.T.);
#543=ORIENTED_EDGE('',*,*,#350,.T.);
#544=ORIENTED_EDGE('',*,*,#354,.T.);
#545=ORIENTED_EDGE('',*,*,#357,.T.);
#546=ORIENTED_EDGE('',*,*,#340,.T.);
#547=ORIENTED_EDGE('',*,*,#344,.T.);
#548=ORIENTED_EDGE('',*,*,#413,.T.);
#549=ORIENTED_EDGE('',*,*,#370,.F.);
#550=ORIENTED_EDGE('',*,*,#410,.F.);
#551=ORIENTED_EDGE('',*,*,#382,.T.);
#552=ORIENTED_EDGE('',*,*,#374,.F.);
#553=ORIENTED_EDGE('',*,*,#414,.T.);
#554=ORIENTED_EDGE('',*,*,#397,.F.);
#555=ORIENTED_EDGE('',*,*,#414,.F.);
#556=ORIENTED_EDGE('',*,*,#375,.F.);
#557=ORIENTED_EDGE('',*,*,#415,.T.);
#558=ORIENTED_EDGE('',*,*,#393,.F.);
#559=ORIENTED_EDGE('',*,*,#415,.F.);
#560=ORIENTED_EDGE('',*,*,#416,.F.);
#561=ORIENTED_EDGE('',*,*,#376,.T.);
#562=ORIENTED_EDGE('',*,*,#365,.F.);
#563=ORIENTED_EDGE('',*,*,#417,.F.);
#564=ORIENTED_EDGE('',*,*,#418,.F.);
#565=ORIENTED_EDGE('',*,*,#417,.T.);
#566=ORIENTED_EDGE('',*,*,#364,.F.);
#567=ORIENTED_EDGE('',*,*,#419,.F.);
#568=ORIENTED_EDGE('',*,*,#420,.F.);
#569=ORIENTED_EDGE('',*,*,#419,.T.);
#570=ORIENTED_EDGE('',*,*,#363,.F.);
#571=ORIENTED_EDGE('',*,*,#378,.F.);
#572=ORIENTED_EDGE('',*,*,#386,.T.);
#573=ORIENTED_EDGE('',*,*,#421,.F.);
#574=ORIENTED_EDGE('',*,*,#422,.F.);
#575=ORIENTED_EDGE('',*,*,#390,.T.);
#576=ORIENTED_EDGE('',*,*,#385,.T.);
#577=ORIENTED_EDGE('',*,*,#389,.F.);
#578=ORIENTED_EDGE('',*,*,#423,.F.);
#579=ORIENTED_EDGE('',*,*,#421,.T.);
#580=ORIENTED_EDGE('',*,*,#391,.T.);
#581=ORIENTED_EDGE('',*,*,#422,.T.);
#582=ORIENTED_EDGE('',*,*,#423,.T.);
#583=ORIENTED_EDGE('',*,*,#388,.T.);
#584=ORIENTED_EDGE('',*,*,#377,.T.);
#585=ORIENTED_EDGE('',*,*,#416,.T.);
#586=ORIENTED_EDGE('',*,*,#418,.T.);
#587=ORIENTED_EDGE('',*,*,#420,.T.);
#588=ORIENTED_EDGE('',*,*,#400,.T.);
#589=ORIENTED_EDGE('',*,*,#402,.T.);
#590=ORIENTED_EDGE('',*,*,#404,.T.);
#591=ORIENTED_EDGE('',*,*,#406,.T.);
#592=CYLINDRICAL_SURFACE('',#651,2.551);
#593=CYLINDRICAL_SURFACE('',#657,2.551);
#594=CYLINDRICAL_SURFACE('',#683,3.);
#595=CYLINDRICAL_SURFACE('',#685,3.);
#596=CYLINDRICAL_SURFACE('',#687,2.99999999999999);
#597=CYLINDRICAL_SURFACE('',#689,3.00000000000001);
#598=CYLINDRICAL_SURFACE('',#693,1.99999999999999);
#599=CYLINDRICAL_SURFACE('',#694,2.);
#600=CYLINDRICAL_SURFACE('',#697,2.);
#601=CYLINDRICAL_SURFACE('',#698,1.99999999999999);
#602=ADVANCED_FACE('',(#53),#592,.F.);
#603=ADVANCED_FACE('',(#54),#28,.F.);
#604=ADVANCED_FACE('',(#55),#29,.F.);
#605=ADVANCED_FACE('',(#56),#30,.F.);
#606=ADVANCED_FACE('',(#57),#593,.F.);
#607=ADVANCED_FACE('',(#58),#31,.F.);
#608=ADVANCED_FACE('',(#59),#32,.F.);
#609=ADVANCED_FACE('',(#60,#15,#16,#17,#18),#33,.T.);
#610=ADVANCED_FACE('',(#61),#34,.T.);
#611=ADVANCED_FACE('',(#62,#19),#35,.F.);
#612=ADVANCED_FACE('',(#63),#36,.T.);
#613=ADVANCED_FACE('',(#64),#37,.T.);
#614=ADVANCED_FACE('',(#65,#20),#38,.F.);
#615=ADVANCED_FACE('',(#66,#21),#39,.F.);
#616=ADVANCED_FACE('',(#67,#22),#40,.F.);
#617=ADVANCED_FACE('',(#68,#23),#41,.F.);
#618=ADVANCED_FACE('',(#69),#594,.F.);
#619=ADVANCED_FACE('',(#70),#595,.F.);
#620=ADVANCED_FACE('',(#71),#596,.F.);
#621=ADVANCED_FACE('',(#72),#597,.F.);
#622=ADVANCED_FACE('',(#73),#42,.T.);
#623=ADVANCED_FACE('',(#74),#43,.T.);
#624=ADVANCED_FACE('',(#75),#598,.F.);
#625=ADVANCED_FACE('',(#76),#599,.F.);
#626=ADVANCED_FACE('',(#77),#44,.T.);
#627=ADVANCED_FACE('',(#78),#45,.T.);
#628=ADVANCED_FACE('',(#79),#600,.F.);
#629=ADVANCED_FACE('',(#80),#601,.F.);
#630=ADVANCED_FACE('',(#81),#46,.T.);
#631=ADVANCED_FACE('',(#82),#47,.T.);
#632=ADVANCED_FACE('',(#83),#48,.T.);
#633=ADVANCED_FACE('',(#84),#49,.T.);
#634=ADVANCED_FACE('',(#85),#50,.T.);
#635=ADVANCED_FACE('',(#86),#51,.T.);
#636=ADVANCED_FACE('',(#87,#24,#25,#26,#27),#52,.F.);
#637=CLOSED_SHELL('',(#602,#603,#604,#605,#606,#607,#608,#609,#610,#611,
#612,#613,#614,#615,#616,#617,#618,#619,#620,#621,#622,#623,#624,#625,#626,
#627,#628,#629,#630,#631,#632,#633,#634,#635,#636));
#638=DERIVED_UNIT_ELEMENT(#640,1.);
#639=DERIVED_UNIT_ELEMENT(#1063,-3.);
#640=(
MASS_UNIT()
NAMED_UNIT(*)
SI_UNIT(.KILO.,.GRAM.)
);
#641=DERIVED_UNIT((#638,#639));
#642=MEASURE_REPRESENTATION_ITEM('density measure',
POSITIVE_RATIO_MEASURE(7850.),#641);
#643=PROPERTY_DEFINITION_REPRESENTATION(#648,#645);
#644=PROPERTY_DEFINITION_REPRESENTATION(#649,#646);
#645=REPRESENTATION('material name',(#647),#1060);
#646=REPRESENTATION('density',(#642),#1060);
#647=DESCRIPTIVE_REPRESENTATION_ITEM('Steel','Steel');
#648=PROPERTY_DEFINITION('material property','material name',#1070);
#649=PROPERTY_DEFINITION('material property','density of part',#1070);
#650=AXIS2_PLACEMENT_3D('',#882,#706,#707);
#651=AXIS2_PLACEMENT_3D('',#883,#708,#709);
#652=AXIS2_PLACEMENT_3D('',#886,#710,#711);
#653=AXIS2_PLACEMENT_3D('',#890,#713,#714);
#654=AXIS2_PLACEMENT_3D('',#892,#716,#717);
#655=AXIS2_PLACEMENT_3D('',#898,#721,#722);
#656=AXIS2_PLACEMENT_3D('',#904,#726,#727);
#657=AXIS2_PLACEMENT_3D('',#913,#732,#733);
#658=AXIS2_PLACEMENT_3D('',#915,#734,#735);
#659=AXIS2_PLACEMENT_3D('',#917,#736,#737);
#660=AXIS2_PLACEMENT_3D('',#919,#739,#740);
#661=AXIS2_PLACEMENT_3D('',#922,#743,#744);
#662=AXIS2_PLACEMENT_3D('',#928,#748,#749);
#663=AXIS2_PLACEMENT_3D('',#948,#760,#761);
#664=AXIS2_PLACEMENT_3D('',#950,#762,#763);
#665=AXIS2_PLACEMENT_3D('',#952,#764,#765);
#666=AXIS2_PLACEMENT_3D('',#954,#766,#767);
#667=AXIS2_PLACEMENT_3D('',#955,#768,#769);
#668=AXIS2_PLACEMENT_3D('',#961,#773,#774);
#669=AXIS2_PLACEMENT_3D('',#978,#783,#784);
#670=AXIS2_PLACEMENT_3D('',#984,#788,#789);
#671=AXIS2_PLACEMENT_3D('',#988,#792,#793);
#672=AXIS2_PLACEMENT_3D('',#990,#794,#795);
#673=AXIS2_PLACEMENT_3D('',#992,#796,#797);
#674=AXIS2_PLACEMENT_3D('',#993,#798,#799);
#675=AXIS2_PLACEMENT_3D('',#995,#800,#801);
#676=AXIS2_PLACEMENT_3D('',#997,#802,#803);
#677=AXIS2_PLACEMENT_3D('',#998,#804,#805);
#678=AXIS2_PLACEMENT_3D('',#1000,#806,#807);
#679=AXIS2_PLACEMENT_3D('',#1002,#808,#809);
#680=AXIS2_PLACEMENT_3D('',#1003,#810,#811);
#681=AXIS2_PLACEMENT_3D('',#1005,#812,#813);
#682=AXIS2_PLACEMENT_3D('',#1007,#814,#815);
#683=AXIS2_PLACEMENT_3D('',#1008,#816,#817);
#684=AXIS2_PLACEMENT_3D('',#1010,#818,#819);
#685=AXIS2_PLACEMENT_3D('',#1012,#821,#822);
#686=AXIS2_PLACEMENT_3D('',#1014,#823,#824);
#687=AXIS2_PLACEMENT_3D('',#1016,#826,#827);
#688=AXIS2_PLACEMENT_3D('',#1018,#828,#829);
#689=AXIS2_PLACEMENT_3D('',#1020,#831,#832);
#690=AXIS2_PLACEMENT_3D('',#1022,#833,#834);
#691=AXIS2_PLACEMENT_3D('',#1024,#836,#837);
#692=AXIS2_PLACEMENT_3D('',#1027,#840,#841);
#693=AXIS2_PLACEMENT_3D('',#1029,#843,#844);
#694=AXIS2_PLACEMENT_3D('',#1031,#846,#847);
#695=AXIS2_PLACEMENT_3D('',#1033,#849,#850);
#696=AXIS2_PLACEMENT_3D('',#1035,#852,#853);
#697=AXIS2_PLACEMENT_3D('',#1036,#854,#855);
#698=AXIS2_PLACEMENT_3D('',#1038,#857,#858);
#699=AXIS2_PLACEMENT_3D('',#1040,#860,#861);
#700=AXIS2_PLACEMENT_3D('',#1044,#864,#865);
#701=AXIS2_PLACEMENT_3D('',#1048,#868,#869);
#702=AXIS2_PLACEMENT_3D('',#1050,#871,#872);
#703=AXIS2_PLACEMENT_3D('',#1054,#875,#876);
#704=AXIS2_PLACEMENT_3D('',#1056,#878,#879);
#705=AXIS2_PLACEMENT_3D('',#1057,#880,#881);
#706=DIRECTION('axis',(0.,0.,1.));
#707=DIRECTION('refdir',(1.,0.,0.));
#708=DIRECTION('center_axis',(0.,-1.,0.));
#709=DIRECTION('ref_axis',(0.,0.,-1.));
#710=DIRECTION('center_axis',(0.,1.,0.));
#711=DIRECTION('ref_axis',(0.,0.,-1.));
#712=DIRECTION('',(0.,-1.,0.));
#713=DIRECTION('center_axis',(0.,-1.,0.));
#714=DIRECTION('ref_axis',(0.,0.,-1.));
#715=DIRECTION('',(0.,-1.,0.));
#716=DIRECTION('center_axis',(0.,0.,-1.));
#717=DIRECTION('ref_axis',(1.,0.,0.));
#718=DIRECTION('',(-1.,0.,0.));
#719=DIRECTION('',(1.,0.,0.));
#720=DIRECTION('',(0.,-1.,0.));
#721=DIRECTION('center_axis',(-1.,0.,0.));
#722=DIRECTION('ref_axis',(0.,0.,-1.));
#723=DIRECTION('',(0.,0.,1.));
#724=DIRECTION('',(0.,0.,-1.));
#725=DIRECTION('',(0.,1.,0.));
#726=DIRECTION('center_axis',(0.,0.,-1.));
#727=DIRECTION('ref_axis',(1.,0.,0.));
#728=DIRECTION('',(-1.,0.,0.));
#729=DIRECTION('',(0.,-1.,0.));
#730=DIRECTION('',(1.,0.,0.));
#731=DIRECTION('',(0.,-1.,0.));
#732=DIRECTION('center_axis',(0.,-1.,0.));
#733=DIRECTION('ref_axis',(0.,0.,1.));
#734=DIRECTION('center_axis',(0.,1.,0.));
#735=DIRECTION('ref_axis',(0.,0.,1.));
#736=DIRECTION('center_axis',(0.,-1.,0.));
#737=DIRECTION('ref_axis',(0.,0.,1.));
#738=DIRECTION('',(0.,-1.,0.));
#739=DIRECTION('center_axis',(0.,0.,-1.));
#740=DIRECTION('ref_axis',(1.,0.,0.));
#741=DIRECTION('',(-1.,0.,0.));
#742=DIRECTION('',(1.,0.,0.));
#743=DIRECTION('center_axis',(1.,0.,0.));
#744=DIRECTION('ref_axis',(0.,0.,1.));
#745=DIRECTION('',(0.,0.,-1.));
#746=DIRECTION('',(0.,-1.,0.));
#747=DIRECTION('',(0.,0.,1.));
#748=DIRECTION('center_axis',(0.,0.,1.));
#749=DIRECTION('ref_axis',(1.,0.,0.));
#750=DIRECTION('',(-1.,0.,0.));
#751=DIRECTION('',(0.,-1.,0.));
#752=DIRECTION('',(1.,0.,0.));
#753=DIRECTION('',(0.,1.,0.));
#754=DIRECTION('',(-1.,0.,0.));
#755=DIRECTION('',(1.,0.,0.));
#756=DIRECTION('',(0.,-1.,0.));
#757=DIRECTION('',(-1.,0.,0.));
#758=DIRECTION('',(0.,1.,0.));
#759=DIRECTION('',(1.,0.,0.));
#760=DIRECTION('center_axis',(0.,0.,-1.));
#761=DIRECTION('ref_axis',(1.,0.,0.));
#762=DIRECTION('center_axis',(0.,0.,-1.));
#763=DIRECTION('ref_axis',(1.,0.,0.));
#764=DIRECTION('center_axis',(0.,0.,-1.));
#765=DIRECTION('ref_axis',(1.,0.,0.));
#766=DIRECTION('center_axis',(0.,0.,-1.));
#767=DIRECTION('ref_axis',(1.,0.,0.));
#768=DIRECTION('center_axis',(0.,1.,0.));
#769=DIRECTION('ref_axis',(-1.,0.,0.));
#770=DIRECTION('',(0.,0.,1.));
#771=DIRECTION('',(1.,0.,0.));
#772=DIRECTION('',(0.,0.,1.));
#773=DIRECTION('center_axis',(0.,0.,-1.));
#774=DIRECTION('ref_axis',(-1.,0.,0.));
#775=DIRECTION('',(-1.,0.,0.));
#776=DIRECTION('',(0.,-1.,0.));
#777=DIRECTION('',(1.,0.,0.));
#778=DIRECTION('',(0.,1.,0.));
#779=DIRECTION('',(0.,1.,0.));
#780=DIRECTION('',(1.,0.,0.));
#781=DIRECTION('',(0.,-1.,0.));
#782=DIRECTION('',(-1.,0.,0.));
#783=DIRECTION('center_axis',(0.,1.,0.));
#784=DIRECTION('ref_axis',(-1.,0.,0.));
#785=DIRECTION('',(0.,0.,1.));
#786=DIRECTION('',(1.,0.,0.));
#787=DIRECTION('',(0.,0.,1.));
#788=DIRECTION('center_axis',(-1.,0.,0.));
#789=DIRECTION('ref_axis',(0.,-1.,0.));
#790=DIRECTION('',(0.,0.,1.));
#791=DIRECTION('',(0.,1.,0.));
#792=DIRECTION('center_axis',(0.,0.,1.));
#793=DIRECTION('ref_axis',(1.,0.,0.));
#794=DIRECTION('center_axis',(0.,0.,1.));
#795=DIRECTION('ref_axis',(1.,0.,0.));
#796=DIRECTION('center_axis',(0.,0.,1.));
#797=DIRECTION('ref_axis',(1.,0.,0.));
#798=DIRECTION('center_axis',(0.,0.,1.));
#799=DIRECTION('ref_axis',(1.,0.,0.));
#800=DIRECTION('center_axis',(0.,0.,1.));
#801=DIRECTION('ref_axis',(1.,0.,0.));
#802=DIRECTION('center_axis',(0.,0.,1.));
#803=DIRECTION('ref_axis',(1.,0.,0.));
#804=DIRECTION('center_axis',(0.,0.,1.));
#805=DIRECTION('ref_axis',(1.,0.,0.));
#806=DIRECTION('center_axis',(0.,0.,1.));
#807=DIRECTION('ref_axis',(1.,0.,0.));
#808=DIRECTION('center_axis',(0.,0.,1.));
#809=DIRECTION('ref_axis',(1.,0.,0.));
#810=DIRECTION('center_axis',(0.,0.,1.));
#811=DIRECTION('ref_axis',(1.,0.,0.));
#812=DIRECTION('center_axis',(0.,0.,1.));
#813=DIRECTION('ref_axis',(1.,0.,0.));
#814=DIRECTION('center_axis',(0.,0.,1.));
#815=DIRECTION('ref_axis',(1.,0.,0.));
#816=DIRECTION('center_axis',(0.,0.,1.));
#817=DIRECTION('ref_axis',(1.,0.,0.));
#818=DIRECTION('center_axis',(0.,0.,1.));
#819=DIRECTION('ref_axis',(1.,0.,0.));
#820=DIRECTION('',(0.,0.,1.));
#821=DIRECTION('center_axis',(0.,0.,1.));
#822=DIRECTION('ref_axis',(1.,0.,0.));
#823=DIRECTION('center_axis',(0.,0.,1.));
#824=DIRECTION('ref_axis',(1.,0.,0.));
#825=DIRECTION('',(0.,0.,1.));
#826=DIRECTION('center_axis',(0.,0.,1.));
#827=DIRECTION('ref_axis',(1.,0.,0.));
#828=DIRECTION('center_axis',(0.,0.,1.));
#829=DIRECTION('ref_axis',(1.,0.,0.));
#830=DIRECTION('',(0.,0.,1.));
#831=DIRECTION('center_axis',(0.,0.,1.));
#832=DIRECTION('ref_axis',(1.,0.,0.));
#833=DIRECTION('center_axis',(0.,0.,1.));
#834=DIRECTION('ref_axis',(1.,0.,0.));
#835=DIRECTION('',(0.,0.,1.));
#836=DIRECTION('center_axis',(-1.,0.,0.));
#837=DIRECTION('ref_axis',(0.,-1.,0.));
#838=DIRECTION('',(0.,0.,-1.));
#839=DIRECTION('',(0.,0.,1.));
#840=DIRECTION('center_axis',(0.,1.,0.));
#841=DIRECTION('ref_axis',(-1.,0.,0.));
#842=DIRECTION('',(0.,0.,1.));
#843=DIRECTION('center_axis',(0.,0.,1.));
#844=DIRECTION('ref_axis',(1.,0.,0.));
#845=DIRECTION('',(0.,0.,-1.));
#846=DIRECTION('center_axis',(0.,0.,1.));
#847=DIRECTION('ref_axis',(1.,0.,0.));
#848=DIRECTION('',(0.,0.,-1.));
#849=DIRECTION('center_axis',(0.,-1.,0.));
#850=DIRECTION('ref_axis',(1.,0.,0.));
#851=DIRECTION('',(0.,0.,1.));
#852=DIRECTION('center_axis',(1.,0.,0.));
#853=DIRECTION('ref_axis',(0.,1.,0.));
#854=DIRECTION('center_axis',(0.,0.,1.));
#855=DIRECTION('ref_axis',(1.,0.,0.));
#856=DIRECTION('',(0.,0.,-1.));
#857=DIRECTION('center_axis',(0.,0.,1.));
#858=DIRECTION('ref_axis',(1.,0.,0.));
#859=DIRECTION('',(0.,0.,-1.));
#860=DIRECTION('center_axis',(1.,0.,0.));
#861=DIRECTION('ref_axis',(0.,1.,0.));
#862=DIRECTION('',(0.,-1.,0.));
#863=DIRECTION('',(0.,0.,1.));
#864=DIRECTION('center_axis',(0.,-1.,0.));
#865=DIRECTION('ref_axis',(1.,0.,0.));
#866=DIRECTION('',(-1.,0.,0.));
#867=DIRECTION('',(0.,0.,1.));
#868=DIRECTION('center_axis',(-1.,0.,0.));
#869=DIRECTION('ref_axis',(0.,-1.,0.));
#870=DIRECTION('',(0.,1.,0.));
#871=DIRECTION('center_axis',(0.,-1.,0.));
#872=DIRECTION('ref_axis',(1.,0.,0.));
#873=DIRECTION('',(0.,0.,1.));
#874=DIRECTION('',(-1.,0.,0.));
#875=DIRECTION('center_axis',(1.,0.,0.));
#876=DIRECTION('ref_axis',(0.,1.,0.));
#877=DIRECTION('',(0.,-1.,0.));
#878=DIRECTION('center_axis',(0.,0.,1.));
#879=DIRECTION('ref_axis',(1.,0.,0.));
#880=DIRECTION('center_axis',(0.,0.,1.));
#881=DIRECTION('ref_axis',(1.,0.,0.));
#882=CARTESIAN_POINT('',(0.,0.,0.));
#883=CARTESIAN_POINT('Origin',(-52.1232084022907,80.1719,11.2590001788139));
#884=CARTESIAN_POINT('',(-52.1232084022907,70.1719,8.70800017881393));
#885=CARTESIAN_POINT('',(-54.6742084022907,70.1719,11.2590001788139));
#886=CARTESIAN_POINT('Origin',(-52.1232084022907,70.1719,11.2590001788139));
#887=CARTESIAN_POINT('',(-52.1232084022907,80.1719,8.70800017881393));
#888=CARTESIAN_POINT('',(-52.1232084022907,80.1719,8.70800017881393));
#889=CARTESIAN_POINT('',(-54.6742084022907,80.1719,11.2590001788139));
#890=CARTESIAN_POINT('Origin',(-52.1232084022907,80.1719,11.2590001788139));
#891=CARTESIAN_POINT('',(-54.6742084022907,80.1719,11.2590001788139));
#892=CARTESIAN_POINT('Origin',(-54.6818005885959,80.1719,11.2590001788139));
#893=CARTESIAN_POINT('',(-54.6818005885959,70.1719,11.2590001788139));
#894=CARTESIAN_POINT('',(-89.8409005550683,70.1719,11.2590001788139));
#895=CARTESIAN_POINT('',(-54.6818005885959,80.1719,11.2590001788139));
#896=CARTESIAN_POINT('',(-34.5065505550683,80.1719,11.2590001788139));
#897=CARTESIAN_POINT('',(-54.6818005885959,80.1719,11.2590001788139));
#898=CARTESIAN_POINT('Origin',(-54.6818005885959,80.1719,15.0000002235174));
#899=CARTESIAN_POINT('',(-54.6818005885959,70.1719,13.));
#900=CARTESIAN_POINT('',(-54.6818005885959,70.1719,7.50000011175871));
#901=CARTESIAN_POINT('',(-54.6818005885959,80.1719,13.));
#902=CARTESIAN_POINT('',(-54.6818005885959,80.1719,7.50000011175871));
#903=CARTESIAN_POINT('',(-54.6818005885959,52.628925,13.));
#904=CARTESIAN_POINT('Origin',(-43.1383926407906,80.1719,11.2590001788139));
#905=CARTESIAN_POINT('',(-43.1308004544854,70.1719,11.2590001788139));
#906=CARTESIAN_POINT('',(-43.1383926407906,70.1719,11.2590001788139));
#907=CARTESIAN_POINT('',(-84.0691965811656,70.1719,11.2590001788139));
#908=CARTESIAN_POINT('',(-43.1308004544854,80.1719,11.2590001788139));
#909=CARTESIAN_POINT('',(-43.1308004544854,80.1719,11.2590001788139));
#910=CARTESIAN_POINT('',(-43.1383926407906,80.1719,11.2590001788139));
#911=CARTESIAN_POINT('',(-28.7348465811656,80.1719,11.2590001788139));
#912=CARTESIAN_POINT('',(-43.1383926407906,80.1719,11.2590001788139));
#913=CARTESIAN_POINT('Origin',(-45.6893926407906,80.1719,11.2590001788139));
#914=CARTESIAN_POINT('',(-45.6893926407906,70.1719,8.70800017881393));
#915=CARTESIAN_POINT('Origin',(-45.6893926407906,70.1719,11.2590001788139));
#916=CARTESIAN_POINT('',(-45.6893926407906,80.1719,8.70800017881393));
#917=CARTESIAN_POINT('Origin',(-45.6893926407906,80.1719,11.2590001788139));
#918=CARTESIAN_POINT('',(-45.6893926407906,80.1719,8.70800017881393));
#919=CARTESIAN_POINT('Origin',(-52.1232084022907,80.1719,8.70800017881393));
#920=CARTESIAN_POINT('',(-88.5616044619156,70.1719,8.70800017881393));
#921=CARTESIAN_POINT('',(-33.2272544619156,80.1719,8.70800017881393));
#922=CARTESIAN_POINT('Origin',(-43.1308004544854,80.1719,11.2590001788139));
#923=CARTESIAN_POINT('',(-43.1308004544854,70.1719,13.));
#924=CARTESIAN_POINT('',(-43.1308004544854,70.1719,5.62950008940697));
#925=CARTESIAN_POINT('',(-43.1308004544854,80.1719,13.));
#926=CARTESIAN_POINT('',(-43.1308004544854,52.628925,13.));
#927=CARTESIAN_POINT('',(-43.1308004544854,80.1719,5.62950008940697));
#928=CARTESIAN_POINT('Origin',(-74.6656505215407,25.08595,13.));
#929=CARTESIAN_POINT('',(-135.000000521541,80.1719,13.));
#930=CARTESIAN_POINT('',(-135.000000521541,80.1719,13.));
#931=CARTESIAN_POINT('',(-135.000000521541,-30.,13.));
#932=CARTESIAN_POINT('',(-135.000000521541,-30.,13.));
#933=CARTESIAN_POINT('',(-14.3313005215406,-30.,13.));
#934=CARTESIAN_POINT('',(-14.3313005215406,-30.,13.));
#935=CARTESIAN_POINT('',(-14.3313005215406,80.1719,13.));
#936=CARTESIAN_POINT('',(-14.3313005215406,80.1719,13.));
#937=CARTESIAN_POINT('',(-135.000000521541,80.1719,13.));
#938=CARTESIAN_POINT('',(-24.3313005215406,70.1719,13.));
#939=CARTESIAN_POINT('',(-125.000000521541,70.1719,13.));
#940=CARTESIAN_POINT('',(-24.3313005215406,-20.,13.));
#941=CARTESIAN_POINT('',(-24.3313005215406,70.1719,13.));
#942=CARTESIAN_POINT('',(-125.000000521541,-20.,13.));
#943=CARTESIAN_POINT('',(-24.3313005215406,-20.,13.));
#944=CARTESIAN_POINT('',(-125.000000521541,70.1719,13.));
#945=CARTESIAN_POINT('',(-125.000000521541,-20.,13.));
#946=CARTESIAN_POINT('',(-125.000000521541,70.1719,13.));
#947=CARTESIAN_POINT('',(-132.000000521541,75.1719,13.));
#948=CARTESIAN_POINT('Origin',(-130.000000521541,75.1719,13.));
#949=CARTESIAN_POINT('',(-21.3313005215406,-25.,13.));
#950=CARTESIAN_POINT('Origin',(-19.3313005215406,-25.,13.));
#951=CARTESIAN_POINT('',(-21.3313005215406,75.1719,13.));
#952=CARTESIAN_POINT('Origin',(-19.3313005215406,75.1719,13.));
#953=CARTESIAN_POINT('',(-132.000000521541,-25.,13.));
#954=CARTESIAN_POINT('Origin',(-130.000000521541,-25.,13.));
#955=CARTESIAN_POINT('Origin',(-14.3313005215406,80.1719,0.));
#956=CARTESIAN_POINT('',(-14.3313005215406,80.1719,0.));
#957=CARTESIAN_POINT('',(-14.3313005215406,80.1719,0.));
#958=CARTESIAN_POINT('',(-135.000000521541,80.1719,0.));
#959=CARTESIAN_POINT('',(-135.000000521541,80.1719,0.));
#960=CARTESIAN_POINT('',(-135.000000521541,80.1719,0.));
#961=CARTESIAN_POINT('Origin',(-74.6656505215406,25.08595,4.2));
#962=CARTESIAN_POINT('',(-24.3313005215406,-20.,4.2));
#963=CARTESIAN_POINT('',(-125.000000521541,-20.,4.2));
#964=CARTESIAN_POINT('',(-24.3313005215406,-20.,4.2));
#965=CARTESIAN_POINT('',(-24.3313005215406,70.1719,4.2));
#966=CARTESIAN_POINT('',(-24.3313005215406,70.1719,4.2));
#967=CARTESIAN_POINT('',(-125.000000521541,70.1719,4.2));
#968=CARTESIAN_POINT('',(-125.000000521541,70.1719,4.2));
#969=CARTESIAN_POINT('',(-125.000000521541,-20.,4.2));
#970=CARTESIAN_POINT('',(-29.3313005215406,-15.,4.2));
#971=CARTESIAN_POINT('',(-29.3313005215406,65.1719,4.2));
#972=CARTESIAN_POINT('',(-29.3313005215406,45.128925,4.2));
#973=CARTESIAN_POINT('',(-120.000000521541,-15.,4.2));
#974=CARTESIAN_POINT('',(-51.9984755215406,-15.,4.2));
#975=CARTESIAN_POINT('',(-120.000000521541,65.1719,4.2));
#976=CARTESIAN_POINT('',(-120.000000521541,5.042975,4.2));
#977=CARTESIAN_POINT('',(-97.3328255215406,65.1719,4.2));
#978=CARTESIAN_POINT('Origin',(-29.3313005215406,-15.,0.));
#979=CARTESIAN_POINT('',(-29.3313005215406,-15.,3.));
#980=CARTESIAN_POINT('',(-29.3313005215406,-15.,0.));
#981=CARTESIAN_POINT('',(-120.000000521541,-15.,3.));
#982=CARTESIAN_POINT('',(-120.000000521541,-15.,3.));
#983=CARTESIAN_POINT('',(-120.000000521541,-15.,0.));
#984=CARTESIAN_POINT('Origin',(-29.3313005215406,65.1719,0.));
#985=CARTESIAN_POINT('',(-29.3313005215406,65.1719,3.));
#986=CARTESIAN_POINT('',(-29.3313005215406,65.1719,0.));
#987=CARTESIAN_POINT('',(-29.3313005215406,-15.,3.));
#988=CARTESIAN_POINT('Origin',(-130.000000521541,-25.,2.));
#989=CARTESIAN_POINT('',(-133.000000521541,-25.,2.));
#990=CARTESIAN_POINT('Origin',(-130.000000521541,-25.,2.));
#991=CARTESIAN_POINT('',(-132.000000521541,-25.,2.));
#992=CARTESIAN_POINT('Origin',(-130.000000521541,-25.,2.));
#993=CARTESIAN_POINT('Origin',(-19.3313005215406,-25.,2.));
#994=CARTESIAN_POINT('',(-22.3313005215406,-25.,2.));
#995=CARTESIAN_POINT('Origin',(-19.3313005215406,-25.,2.));
#996=CARTESIAN_POINT('',(-21.3313005215406,-25.,2.));
#997=CARTESIAN_POINT('Origin',(-19.3313005215406,-25.,2.));
#998=CARTESIAN_POINT('Origin',(-19.3313005215406,75.1719,2.));
#999=CARTESIAN_POINT('',(-22.3313005215406,75.1719,2.));
#1000=CARTESIAN_POINT('Origin',(-19.3313005215406,75.1719,2.));
#1001=CARTESIAN_POINT('',(-21.3313005215406,75.1719,2.));
#1002=CARTESIAN_POINT('Origin',(-19.3313005215406,75.1719,2.));
#1003=CARTESIAN_POINT('Origin',(-130.000000521541,75.1719,2.));
#1004=CARTESIAN_POINT('',(-133.000000521541,75.1719,2.));
#1005=CARTESIAN_POINT('Origin',(-130.000000521541,75.1719,2.));
#1006=CARTESIAN_POINT('',(-132.000000521541,75.1719,2.));
#1007=CARTESIAN_POINT('Origin',(-130.000000521541,75.1719,2.));
#1008=CARTESIAN_POINT('Origin',(-19.3313005215406,75.1719,0.));
#1009=CARTESIAN_POINT('',(-22.3313005215406,75.1719,0.));
#1010=CARTESIAN_POINT('Origin',(-19.3313005215406,75.1719,0.));
#1011=CARTESIAN_POINT('',(-22.3313005215406,75.1719,0.));
#1012=CARTESIAN_POINT('Origin',(-19.3313005215406,-25.,0.));
#1013=CARTESIAN_POINT('',(-22.3313005215406,-25.,0.));
#1014=CARTESIAN_POINT('Origin',(-19.3313005215406,-25.,0.));
#1015=CARTESIAN_POINT('',(-22.3313005215406,-25.,0.));
#1016=CARTESIAN_POINT('Origin',(-130.000000521541,-25.,0.));
#1017=CARTESIAN_POINT('',(-133.000000521541,-25.,0.));
#1018=CARTESIAN_POINT('Origin',(-130.000000521541,-25.,0.));
#1019=CARTESIAN_POINT('',(-133.000000521541,-25.,0.));
#1020=CARTESIAN_POINT('Origin',(-130.000000521541,75.1719,0.));
#1021=CARTESIAN_POINT('',(-133.000000521541,75.1719,0.));
#1022=CARTESIAN_POINT('Origin',(-130.000000521541,75.1719,0.));
#1023=CARTESIAN_POINT('',(-133.000000521541,75.1719,0.));
#1024=CARTESIAN_POINT('Origin',(-24.3313005215406,70.1719,0.));
#1025=CARTESIAN_POINT('',(-24.3313005215406,-20.,10.));
#1026=CARTESIAN_POINT('',(-24.3313005215406,70.1719,0.));
#1027=CARTESIAN_POINT('Origin',(-24.3313005215406,-20.,0.));
#1028=CARTESIAN_POINT('',(-125.000000521541,-20.,0.));
#1029=CARTESIAN_POINT('Origin',(-130.000000521541,75.1719,0.));
#1030=CARTESIAN_POINT('',(-132.000000521541,75.1719,0.));
#1031=CARTESIAN_POINT('Origin',(-19.3313005215406,-25.,0.));
#1032=CARTESIAN_POINT('',(-21.3313005215406,-25.,0.));
#1033=CARTESIAN_POINT('Origin',(-125.000000521541,70.1719,0.));
#1034=CARTESIAN_POINT('',(-125.000000521541,70.1719,0.));
#1035=CARTESIAN_POINT('Origin',(-125.000000521541,-20.,0.));
#1036=CARTESIAN_POINT('Origin',(-19.3313005215406,75.1719,0.));
#1037=CARTESIAN_POINT('',(-21.3313005215406,75.1719,0.));
#1038=CARTESIAN_POINT('Origin',(-130.000000521541,-25.,0.));
#1039=CARTESIAN_POINT('',(-132.000000521541,-25.,0.));
#1040=CARTESIAN_POINT('Origin',(-14.3313005215406,-30.,0.));
#1041=CARTESIAN_POINT('',(-14.3313005215406,-30.,0.));
#1042=CARTESIAN_POINT('',(-14.3313005215406,80.1719,0.));
#1043=CARTESIAN_POINT('',(-14.3313005215406,-30.,0.));
#1044=CARTESIAN_POINT('Origin',(-135.000000521541,-30.,0.));
#1045=CARTESIAN_POINT('',(-135.000000521541,-30.,0.));
#1046=CARTESIAN_POINT('',(-14.3313005215406,-30.,0.));
#1047=CARTESIAN_POINT('',(-135.000000521541,-30.,0.));
#1048=CARTESIAN_POINT('Origin',(-135.000000521541,80.1719,0.));
#1049=CARTESIAN_POINT('',(-135.000000521541,-30.,0.));
#1050=CARTESIAN_POINT('Origin',(-120.000000521541,65.1719,0.));
#1051=CARTESIAN_POINT('',(-120.000000521541,65.1719,3.));
#1052=CARTESIAN_POINT('',(-120.000000521541,65.1719,0.));
#1053=CARTESIAN_POINT('',(-29.3313005215406,65.1719,3.));
#1054=CARTESIAN_POINT('Origin',(-120.000000521541,-15.,0.));
#1055=CARTESIAN_POINT('',(-120.000000521541,65.1719,3.));
#1056=CARTESIAN_POINT('Origin',(-74.6656505215406,25.08595,3.));
#1057=CARTESIAN_POINT('Origin',(-74.6656505215406,25.08595,0.));
#1058=UNCERTAINTY_MEASURE_WITH_UNIT(LENGTH_MEASURE(0.01),#1062,
'DISTANCE_ACCURACY_VALUE',
'Maximum model space distance between geometric entities at asserted c
onnectivities');
#1059=UNCERTAINTY_MEASURE_WITH_UNIT(LENGTH_MEASURE(0.01),#1062,
'DISTANCE_ACCURACY_VALUE',
'Maximum model space distance between geometric entities at asserted c
onnectivities');
#1060=(
GEOMETRIC_REPRESENTATION_CONTEXT(3)
GLOBAL_UNCERTAINTY_ASSIGNED_CONTEXT((#1058))
GLOBAL_UNIT_ASSIGNED_CONTEXT((#1062,#1064,#1065))
REPRESENTATION_CONTEXT('','3D')
);
#1061=(
GEOMETRIC_REPRESENTATION_CONTEXT(3)
GLOBAL_UNCERTAINTY_ASSIGNED_CONTEXT((#1059))
GLOBAL_UNIT_ASSIGNED_CONTEXT((#1062,#1064,#1065))
REPRESENTATION_CONTEXT('','3D')
);
#1062=(
LENGTH_UNIT()
NAMED_UNIT(*)
SI_UNIT(.MILLI.,.METRE.)
);
#1063=(
LENGTH_UNIT()
NAMED_UNIT(*)
SI_UNIT($,.METRE.)
);
#1064=(
NAMED_UNIT(*)
PLANE_ANGLE_UNIT()
SI_UNIT($,.RADIAN.)
);
#1065=(
NAMED_UNIT(*)
SI_UNIT($,.STERADIAN.)
SOLID_ANGLE_UNIT()
);
#1066=SHAPE_DEFINITION_REPRESENTATION(#1067,#1068);
#1067=PRODUCT_DEFINITION_SHAPE('',$,#1070);
#1068=SHAPE_REPRESENTATION('',(#650),#1060);
#1069=PRODUCT_DEFINITION_CONTEXT('part definition',#1074,'design');
#1070=PRODUCT_DEFINITION('2026-07-07-15-35-32-494','Bottom',#1071,#1069);
#1071=PRODUCT_DEFINITION_FORMATION('',$,#1076);
#1072=PRODUCT_RELATED_PRODUCT_CATEGORY('Bottom','Bottom',(#1076));
#1073=APPLICATION_PROTOCOL_DEFINITION('international standard',
'automotive_design',2009,#1074);
#1074=APPLICATION_CONTEXT(
'Core Data for Automotive Mechanical Design Process');
#1075=PRODUCT_CONTEXT('part definition',#1074,'mechanical');
#1076=PRODUCT('2026-07-07-15-35-32-494','Bottom',$,(#1075));
#1077=PRESENTATION_STYLE_ASSIGNMENT((#1078));
#1078=SURFACE_STYLE_USAGE(.BOTH.,#1079);
#1079=SURFACE_SIDE_STYLE('',(#1080));
#1080=SURFACE_STYLE_FILL_AREA(#1081);
#1081=FILL_AREA_STYLE('Steel - Satin',(#1082));
#1082=FILL_AREA_STYLE_COLOUR('Steel - Satin',#1083);
#1083=COLOUR_RGB('Steel - Satin',0.627450980392157,0.627450980392157,0.627450980392157);
ENDSEC;
END-ISO-10303-21;
