ISO-10303-21;
HEADER;
/* Generated by software containing ST-Developer
 * from STEP Tools, Inc. (www.steptools.com) 
 */

FILE_DESCRIPTION(
/* description */ (''),
/* implementation_level */ '2;1');

FILE_NAME(
/* name */ 'Top.step',
/* time_stamp */ '2026-07-28T17:00:39-05:00',
/* author */ (''),
/* organization */ (''),
/* preprocessor_version */ 'ST-DEVELOPER v20.1',
/* originating_system */ 'Autodesk Translation Framework v15.8.0.0',
/* authorisation */ '');

FILE_SCHEMA (('AUTOMOTIVE_DESIGN { 1 0 10303 214 3 1 1 }'));
ENDSEC;

DATA;
#10=MECHANICAL_DESIGN_GEOMETRIC_PRESENTATION_REPRESENTATION('',(#13),#821);
#11=SHAPE_REPRESENTATION_RELATIONSHIP('SRR','None',#828,#12);
#12=ADVANCED_BREP_SHAPE_REPRESENTATION('',(#14),#820);
#13=STYLED_ITEM('',(#837),#14);
#14=MANIFOLD_SOLID_BREP('Body5',#485);
#15=CYLINDRICAL_SURFACE('',#520,1.75);
#16=CYLINDRICAL_SURFACE('',#522,1.74999999999999);
#17=CYLINDRICAL_SURFACE('',#526,1.75000000000001);
#18=CYLINDRICAL_SURFACE('',#528,1.75);
#19=CYLINDRICAL_SURFACE('',#533,2.1);
#20=CYLINDRICAL_SURFACE('',#535,2.1);
#21=CYLINDRICAL_SURFACE('',#539,2.10000000000001);
#22=CYLINDRICAL_SURFACE('',#541,2.10000000000001);
#23=CIRCLE('',#505,1.75000000000001);
#24=CIRCLE('',#507,1.75);
#25=CIRCLE('',#509,1.74999999999999);
#26=CIRCLE('',#511,1.75);
#27=CIRCLE('',#513,2.1);
#28=CIRCLE('',#515,2.1);
#29=CIRCLE('',#517,2.10000000000001);
#30=CIRCLE('',#519,2.10000000000001);
#31=CIRCLE('',#521,1.75);
#32=CIRCLE('',#523,1.74999999999999);
#33=CIRCLE('',#527,1.75000000000001);
#34=CIRCLE('',#529,1.75);
#35=CIRCLE('',#534,2.1);
#36=CIRCLE('',#536,2.1);
#37=CIRCLE('',#540,2.10000000000001);
#38=CIRCLE('',#542,2.10000000000001);
#39=FACE_BOUND('',#82,.T.);
#40=FACE_BOUND('',#102,.T.);
#41=FACE_BOUND('',#103,.T.);
#42=FACE_BOUND('',#104,.T.);
#43=FACE_BOUND('',#105,.T.);
#44=FACE_BOUND('',#106,.T.);
#45=FACE_BOUND('',#118,.T.);
#46=FACE_BOUND('',#119,.T.);
#47=FACE_BOUND('',#120,.T.);
#48=FACE_BOUND('',#121,.T.);
#49=FACE_BOUND('',#122,.T.);
#50=FACE_OUTER_BOUND('',#81,.T.);
#51=FACE_OUTER_BOUND('',#83,.T.);
#52=FACE_OUTER_BOUND('',#84,.T.);
#53=FACE_OUTER_BOUND('',#85,.T.);
#54=FACE_OUTER_BOUND('',#86,.T.);
#55=FACE_OUTER_BOUND('',#87,.T.);
#56=FACE_OUTER_BOUND('',#88,.T.);
#57=FACE_OUTER_BOUND('',#89,.T.);
#58=FACE_OUTER_BOUND('',#90,.T.);
#59=FACE_OUTER_BOUND('',#91,.T.);
#60=FACE_OUTER_BOUND('',#92,.T.);
#61=FACE_OUTER_BOUND('',#93,.T.);
#62=FACE_OUTER_BOUND('',#94,.T.);
#63=FACE_OUTER_BOUND('',#95,.T.);
#64=FACE_OUTER_BOUND('',#96,.T.);
#65=FACE_OUTER_BOUND('',#97,.T.);
#66=FACE_OUTER_BOUND('',#98,.T.);
#67=FACE_OUTER_BOUND('',#99,.T.);
#68=FACE_OUTER_BOUND('',#100,.T.);
#69=FACE_OUTER_BOUND('',#101,.T.);
#70=FACE_OUTER_BOUND('',#107,.T.);
#71=FACE_OUTER_BOUND('',#108,.T.);
#72=FACE_OUTER_BOUND('',#109,.T.);
#73=FACE_OUTER_BOUND('',#110,.T.);
#74=FACE_OUTER_BOUND('',#111,.T.);
#75=FACE_OUTER_BOUND('',#112,.T.);
#76=FACE_OUTER_BOUND('',#113,.T.);
#77=FACE_OUTER_BOUND('',#114,.T.);
#78=FACE_OUTER_BOUND('',#115,.T.);
#79=FACE_OUTER_BOUND('',#116,.T.);
#80=FACE_OUTER_BOUND('',#117,.T.);
#81=EDGE_LOOP('',(#311,#312,#313,#314));
#82=EDGE_LOOP('',(#315,#316,#317,#318));
#83=EDGE_LOOP('',(#319,#320,#321,#322));
#84=EDGE_LOOP('',(#323,#324,#325,#326));
#85=EDGE_LOOP('',(#327,#328,#329,#330));
#86=EDGE_LOOP('',(#331,#332,#333,#334));
#87=EDGE_LOOP('',(#335));
#88=EDGE_LOOP('',(#336));
#89=EDGE_LOOP('',(#337));
#90=EDGE_LOOP('',(#338));
#91=EDGE_LOOP('',(#339));
#92=EDGE_LOOP('',(#340));
#93=EDGE_LOOP('',(#341));
#94=EDGE_LOOP('',(#342));
#95=EDGE_LOOP('',(#343,#344,#345,#346));
#96=EDGE_LOOP('',(#347,#348,#349,#350));
#97=EDGE_LOOP('',(#351,#352,#353,#354));
#98=EDGE_LOOP('',(#355,#356,#357,#358));
#99=EDGE_LOOP('',(#359,#360,#361,#362));
#100=EDGE_LOOP('',(#363,#364,#365,#366));
#101=EDGE_LOOP('',(#367,#368,#369,#370));
#102=EDGE_LOOP('',(#371));
#103=EDGE_LOOP('',(#372));
#104=EDGE_LOOP('',(#373,#374,#375,#376));
#105=EDGE_LOOP('',(#377));
#106=EDGE_LOOP('',(#378));
#107=EDGE_LOOP('',(#379,#380,#381,#382));
#108=EDGE_LOOP('',(#383,#384,#385,#386));
#109=EDGE_LOOP('',(#387,#388,#389,#390));
#110=EDGE_LOOP('',(#391,#392,#393,#394));
#111=EDGE_LOOP('',(#395,#396,#397,#398));
#112=EDGE_LOOP('',(#399,#400,#401,#402));
#113=EDGE_LOOP('',(#403,#404,#405,#406));
#114=EDGE_LOOP('',(#407,#408,#409,#410));
#115=EDGE_LOOP('',(#411,#412,#413,#414));
#116=EDGE_LOOP('',(#415,#416,#417,#418));
#117=EDGE_LOOP('',(#419,#420,#421,#422));
#118=EDGE_LOOP('',(#423));
#119=EDGE_LOOP('',(#424));
#120=EDGE_LOOP('',(#425,#426,#427,#428));
#121=EDGE_LOOP('',(#429));
#122=EDGE_LOOP('',(#430));
#123=LINE('',#690,#167);
#124=LINE('',#692,#168);
#125=LINE('',#694,#169);
#126=LINE('',#695,#170);
#127=LINE('',#698,#171);
#128=LINE('',#700,#172);
#129=LINE('',#702,#173);
#130=LINE('',#703,#174);
#131=LINE('',#706,#175);
#132=LINE('',#708,#176);
#133=LINE('',#709,#177);
#134=LINE('',#712,#178);
#135=LINE('',#713,#179);
#136=LINE('',#716,#180);
#137=LINE('',#718,#181);
#138=LINE('',#719,#182);
#139=LINE('',#722,#183);
#140=LINE('',#723,#184);
#141=LINE('',#751,#185);
#142=LINE('',#755,#186);
#143=LINE('',#758,#187);
#144=LINE('',#759,#188);
#145=LINE('',#761,#189);
#146=LINE('',#765,#190);
#147=LINE('',#769,#191);
#148=LINE('',#773,#192);
#149=LINE('',#775,#193);
#150=LINE('',#777,#194);
#151=LINE('',#778,#195);
#152=LINE('',#781,#196);
#153=LINE('',#783,#197);
#154=LINE('',#784,#198);
#155=LINE('',#787,#199);
#156=LINE('',#788,#200);
#157=LINE('',#792,#201);
#158=LINE('',#796,#202);
#159=LINE('',#799,#203);
#160=LINE('',#800,#204);
#161=LINE('',#802,#205);
#162=LINE('',#806,#206);
#163=LINE('',#810,#207);
#164=LINE('',#813,#208);
#165=LINE('',#814,#209);
#166=LINE('',#816,#210);
#167=VECTOR('',#550,10.);
#168=VECTOR('',#551,10.);
#169=VECTOR('',#552,10.);
#170=VECTOR('',#553,10.);
#171=VECTOR('',#554,10.);
#172=VECTOR('',#555,10.);
#173=VECTOR('',#556,10.);
#174=VECTOR('',#557,10.);
#175=VECTOR('',#560,10.);
#176=VECTOR('',#561,10.);
#177=VECTOR('',#562,10.);
#178=VECTOR('',#565,10.);
#179=VECTOR('',#566,10.);
#180=VECTOR('',#569,10.);
#181=VECTOR('',#570,10.);
#182=VECTOR('',#571,10.);
#183=VECTOR('',#574,10.);
#184=VECTOR('',#575,10.);
#185=VECTOR('',#612,1.75);
#186=VECTOR('',#617,1.74999999999999);
#187=VECTOR('',#620,10.);
#188=VECTOR('',#621,10.);
#189=VECTOR('',#624,10.);
#190=VECTOR('',#629,1.75000000000001);
#191=VECTOR('',#634,1.75);
#192=VECTOR('',#637,10.);
#193=VECTOR('',#638,10.);
#194=VECTOR('',#639,10.);
#195=VECTOR('',#640,10.);
#196=VECTOR('',#643,10.);
#197=VECTOR('',#644,10.);
#198=VECTOR('',#645,10.);
#199=VECTOR('',#648,10.);
#200=VECTOR('',#649,10.);
#201=VECTOR('',#654,2.1);
#202=VECTOR('',#659,2.1);
#203=VECTOR('',#662,10.);
#204=VECTOR('',#663,10.);
#205=VECTOR('',#666,10.);
#206=VECTOR('',#671,2.10000000000001);
#207=VECTOR('',#676,2.10000000000001);
#208=VECTOR('',#679,10.);
#209=VECTOR('',#680,10.);
#210=VECTOR('',#683,10.);
#211=VERTEX_POINT('',#688);
#212=VERTEX_POINT('',#689);
#213=VERTEX_POINT('',#691);
#214=VERTEX_POINT('',#693);
#215=VERTEX_POINT('',#696);
#216=VERTEX_POINT('',#697);
#217=VERTEX_POINT('',#699);
#218=VERTEX_POINT('',#701);
#219=VERTEX_POINT('',#705);
#220=VERTEX_POINT('',#707);
#221=VERTEX_POINT('',#711);
#222=VERTEX_POINT('',#715);
#223=VERTEX_POINT('',#717);
#224=VERTEX_POINT('',#721);
#225=VERTEX_POINT('',#725);
#226=VERTEX_POINT('',#728);
#227=VERTEX_POINT('',#731);
#228=VERTEX_POINT('',#734);
#229=VERTEX_POINT('',#737);
#230=VERTEX_POINT('',#740);
#231=VERTEX_POINT('',#743);
#232=VERTEX_POINT('',#746);
#233=VERTEX_POINT('',#749);
#234=VERTEX_POINT('',#753);
#235=VERTEX_POINT('',#757);
#236=VERTEX_POINT('',#763);
#237=VERTEX_POINT('',#767);
#238=VERTEX_POINT('',#771);
#239=VERTEX_POINT('',#772);
#240=VERTEX_POINT('',#774);
#241=VERTEX_POINT('',#776);
#242=VERTEX_POINT('',#780);
#243=VERTEX_POINT('',#782);
#244=VERTEX_POINT('',#786);
#245=VERTEX_POINT('',#790);
#246=VERTEX_POINT('',#794);
#247=VERTEX_POINT('',#798);
#248=VERTEX_POINT('',#804);
#249=VERTEX_POINT('',#808);
#250=VERTEX_POINT('',#812);
#251=EDGE_CURVE('',#211,#212,#123,.T.);
#252=EDGE_CURVE('',#212,#213,#124,.T.);
#253=EDGE_CURVE('',#213,#214,#125,.T.);
#254=EDGE_CURVE('',#214,#211,#126,.T.);
#255=EDGE_CURVE('',#215,#216,#127,.T.);
#256=EDGE_CURVE('',#216,#217,#128,.T.);
#257=EDGE_CURVE('',#217,#218,#129,.T.);
#258=EDGE_CURVE('',#218,#215,#130,.T.);
#259=EDGE_CURVE('',#216,#219,#131,.T.);
#260=EDGE_CURVE('',#220,#219,#132,.T.);
#261=EDGE_CURVE('',#217,#220,#133,.T.);
#262=EDGE_CURVE('',#215,#221,#134,.T.);
#263=EDGE_CURVE('',#219,#221,#135,.T.);
#264=EDGE_CURVE('',#212,#222,#136,.T.);
#265=EDGE_CURVE('',#223,#222,#137,.T.);
#266=EDGE_CURVE('',#213,#223,#138,.T.);
#267=EDGE_CURVE('',#211,#224,#139,.T.);
#268=EDGE_CURVE('',#222,#224,#140,.T.);
#269=EDGE_CURVE('',#225,#225,#23,.T.);
#270=EDGE_CURVE('',#226,#226,#24,.T.);
#271=EDGE_CURVE('',#227,#227,#25,.T.);
#272=EDGE_CURVE('',#228,#228,#26,.T.);
#273=EDGE_CURVE('',#229,#229,#27,.T.);
#274=EDGE_CURVE('',#230,#230,#28,.T.);
#275=EDGE_CURVE('',#231,#231,#29,.T.);
#276=EDGE_CURVE('',#232,#232,#30,.T.);
#277=EDGE_CURVE('',#233,#233,#31,.T.);
#278=EDGE_CURVE('',#233,#226,#141,.T.);
#279=EDGE_CURVE('',#234,#234,#32,.T.);
#280=EDGE_CURVE('',#234,#227,#142,.T.);
#281=EDGE_CURVE('',#235,#220,#143,.T.);
#282=EDGE_CURVE('',#218,#235,#144,.T.);
#283=EDGE_CURVE('',#221,#235,#145,.T.);
#284=EDGE_CURVE('',#236,#236,#33,.T.);
#285=EDGE_CURVE('',#236,#225,#146,.T.);
#286=EDGE_CURVE('',#237,#237,#34,.T.);
#287=EDGE_CURVE('',#237,#228,#147,.T.);
#288=EDGE_CURVE('',#238,#239,#148,.T.);
#289=EDGE_CURVE('',#240,#238,#149,.T.);
#290=EDGE_CURVE('',#241,#240,#150,.T.);
#291=EDGE_CURVE('',#239,#241,#151,.T.);
#292=EDGE_CURVE('',#240,#242,#152,.T.);
#293=EDGE_CURVE('',#243,#242,#153,.T.);
#294=EDGE_CURVE('',#241,#243,#154,.T.);
#295=EDGE_CURVE('',#238,#244,#155,.T.);
#296=EDGE_CURVE('',#242,#244,#156,.T.);
#297=EDGE_CURVE('',#245,#245,#35,.T.);
#298=EDGE_CURVE('',#245,#229,#157,.T.);
#299=EDGE_CURVE('',#246,#246,#36,.T.);
#300=EDGE_CURVE('',#246,#230,#158,.T.);
#301=EDGE_CURVE('',#247,#243,#159,.T.);
#302=EDGE_CURVE('',#239,#247,#160,.T.);
#303=EDGE_CURVE('',#244,#247,#161,.T.);
#304=EDGE_CURVE('',#248,#248,#37,.T.);
#305=EDGE_CURVE('',#248,#231,#162,.T.);
#306=EDGE_CURVE('',#249,#249,#38,.T.);
#307=EDGE_CURVE('',#249,#232,#163,.T.);
#308=EDGE_CURVE('',#250,#223,#164,.T.);
#309=EDGE_CURVE('',#214,#250,#165,.T.);
#310=EDGE_CURVE('',#224,#250,#166,.T.);
#311=ORIENTED_EDGE('',*,*,#251,.T.);
#312=ORIENTED_EDGE('',*,*,#252,.T.);
#313=ORIENTED_EDGE('',*,*,#253,.T.);
#314=ORIENTED_EDGE('',*,*,#254,.T.);
#315=ORIENTED_EDGE('',*,*,#255,.T.);
#316=ORIENTED_EDGE('',*,*,#256,.T.);
#317=ORIENTED_EDGE('',*,*,#257,.T.);
#318=ORIENTED_EDGE('',*,*,#258,.T.);
#319=ORIENTED_EDGE('',*,*,#259,.T.);
#320=ORIENTED_EDGE('',*,*,#260,.F.);
#321=ORIENTED_EDGE('',*,*,#261,.F.);
#322=ORIENTED_EDGE('',*,*,#256,.F.);
#323=ORIENTED_EDGE('',*,*,#262,.T.);
#324=ORIENTED_EDGE('',*,*,#263,.F.);
#325=ORIENTED_EDGE('',*,*,#259,.F.);
#326=ORIENTED_EDGE('',*,*,#255,.F.);
#327=ORIENTED_EDGE('',*,*,#264,.T.);
#328=ORIENTED_EDGE('',*,*,#265,.F.);
#329=ORIENTED_EDGE('',*,*,#266,.F.);
#330=ORIENTED_EDGE('',*,*,#252,.F.);
#331=ORIENTED_EDGE('',*,*,#267,.T.);
#332=ORIENTED_EDGE('',*,*,#268,.F.);
#333=ORIENTED_EDGE('',*,*,#264,.F.);
#334=ORIENTED_EDGE('',*,*,#251,.F.);
#335=ORIENTED_EDGE('',*,*,#269,.F.);
#336=ORIENTED_EDGE('',*,*,#270,.F.);
#337=ORIENTED_EDGE('',*,*,#271,.F.);
#338=ORIENTED_EDGE('',*,*,#272,.F.);
#339=ORIENTED_EDGE('',*,*,#273,.F.);
#340=ORIENTED_EDGE('',*,*,#274,.F.);
#341=ORIENTED_EDGE('',*,*,#275,.F.);
#342=ORIENTED_EDGE('',*,*,#276,.F.);
#343=ORIENTED_EDGE('',*,*,#277,.F.);
#344=ORIENTED_EDGE('',*,*,#278,.T.);
#345=ORIENTED_EDGE('',*,*,#270,.T.);
#346=ORIENTED_EDGE('',*,*,#278,.F.);
#347=ORIENTED_EDGE('',*,*,#279,.F.);
#348=ORIENTED_EDGE('',*,*,#280,.T.);
#349=ORIENTED_EDGE('',*,*,#271,.T.);
#350=ORIENTED_EDGE('',*,*,#280,.F.);
#351=ORIENTED_EDGE('',*,*,#261,.T.);
#352=ORIENTED_EDGE('',*,*,#281,.F.);
#353=ORIENTED_EDGE('',*,*,#282,.F.);
#354=ORIENTED_EDGE('',*,*,#257,.F.);
#355=ORIENTED_EDGE('',*,*,#282,.T.);
#356=ORIENTED_EDGE('',*,*,#283,.F.);
#357=ORIENTED_EDGE('',*,*,#262,.F.);
#358=ORIENTED_EDGE('',*,*,#258,.F.);
#359=ORIENTED_EDGE('',*,*,#284,.F.);
#360=ORIENTED_EDGE('',*,*,#285,.T.);
#361=ORIENTED_EDGE('',*,*,#269,.T.);
#362=ORIENTED_EDGE('',*,*,#285,.F.);
#363=ORIENTED_EDGE('',*,*,#286,.F.);
#364=ORIENTED_EDGE('',*,*,#287,.T.);
#365=ORIENTED_EDGE('',*,*,#272,.T.);
#366=ORIENTED_EDGE('',*,*,#287,.F.);
#367=ORIENTED_EDGE('',*,*,#288,.F.);
#368=ORIENTED_EDGE('',*,*,#289,.F.);
#369=ORIENTED_EDGE('',*,*,#290,.F.);
#370=ORIENTED_EDGE('',*,*,#291,.F.);
#371=ORIENTED_EDGE('',*,*,#286,.T.);
#372=ORIENTED_EDGE('',*,*,#284,.T.);
#373=ORIENTED_EDGE('',*,*,#263,.T.);
#374=ORIENTED_EDGE('',*,*,#283,.T.);
#375=ORIENTED_EDGE('',*,*,#281,.T.);
#376=ORIENTED_EDGE('',*,*,#260,.T.);
#377=ORIENTED_EDGE('',*,*,#279,.T.);
#378=ORIENTED_EDGE('',*,*,#277,.T.);
#379=ORIENTED_EDGE('',*,*,#290,.T.);
#380=ORIENTED_EDGE('',*,*,#292,.T.);
#381=ORIENTED_EDGE('',*,*,#293,.F.);
#382=ORIENTED_EDGE('',*,*,#294,.F.);
#383=ORIENTED_EDGE('',*,*,#289,.T.);
#384=ORIENTED_EDGE('',*,*,#295,.T.);
#385=ORIENTED_EDGE('',*,*,#296,.F.);
#386=ORIENTED_EDGE('',*,*,#292,.F.);
#387=ORIENTED_EDGE('',*,*,#297,.F.);
#388=ORIENTED_EDGE('',*,*,#298,.T.);
#389=ORIENTED_EDGE('',*,*,#273,.T.);
#390=ORIENTED_EDGE('',*,*,#298,.F.);
#391=ORIENTED_EDGE('',*,*,#299,.F.);
#392=ORIENTED_EDGE('',*,*,#300,.T.);
#393=ORIENTED_EDGE('',*,*,#274,.T.);
#394=ORIENTED_EDGE('',*,*,#300,.F.);
#395=ORIENTED_EDGE('',*,*,#291,.T.);
#396=ORIENTED_EDGE('',*,*,#294,.T.);
#397=ORIENTED_EDGE('',*,*,#301,.F.);
#398=ORIENTED_EDGE('',*,*,#302,.F.);
#399=ORIENTED_EDGE('',*,*,#288,.T.);
#400=ORIENTED_EDGE('',*,*,#302,.T.);
#401=ORIENTED_EDGE('',*,*,#303,.F.);
#402=ORIENTED_EDGE('',*,*,#295,.F.);
#403=ORIENTED_EDGE('',*,*,#304,.F.);
#404=ORIENTED_EDGE('',*,*,#305,.T.);
#405=ORIENTED_EDGE('',*,*,#275,.T.);
#406=ORIENTED_EDGE('',*,*,#305,.F.);
#407=ORIENTED_EDGE('',*,*,#306,.F.);
#408=ORIENTED_EDGE('',*,*,#307,.T.);
#409=ORIENTED_EDGE('',*,*,#276,.T.);
#410=ORIENTED_EDGE('',*,*,#307,.F.);
#411=ORIENTED_EDGE('',*,*,#266,.T.);
#412=ORIENTED_EDGE('',*,*,#308,.F.);
#413=ORIENTED_EDGE('',*,*,#309,.F.);
#414=ORIENTED_EDGE('',*,*,#253,.F.);
#415=ORIENTED_EDGE('',*,*,#309,.T.);
#416=ORIENTED_EDGE('',*,*,#310,.F.);
#417=ORIENTED_EDGE('',*,*,#267,.F.);
#418=ORIENTED_EDGE('',*,*,#254,.F.);
#419=ORIENTED_EDGE('',*,*,#268,.T.);
#420=ORIENTED_EDGE('',*,*,#310,.T.);
#421=ORIENTED_EDGE('',*,*,#308,.T.);
#422=ORIENTED_EDGE('',*,*,#265,.T.);
#423=ORIENTED_EDGE('',*,*,#306,.T.);
#424=ORIENTED_EDGE('',*,*,#304,.T.);
#425=ORIENTED_EDGE('',*,*,#303,.T.);
#426=ORIENTED_EDGE('',*,*,#301,.T.);
#427=ORIENTED_EDGE('',*,*,#293,.T.);
#428=ORIENTED_EDGE('',*,*,#296,.T.);
#429=ORIENTED_EDGE('',*,*,#299,.T.);
#430=ORIENTED_EDGE('',*,*,#297,.T.);
#431=PLANE('',#499);
#432=PLANE('',#500);
#433=PLANE('',#501);
#434=PLANE('',#502);
#435=PLANE('',#503);
#436=PLANE('',#504);
#437=PLANE('',#506);
#438=PLANE('',#508);
#439=PLANE('',#510);
#440=PLANE('',#512);
#441=PLANE('',#514);
#442=PLANE('',#516);
#443=PLANE('',#518);
#444=PLANE('',#524);
#445=PLANE('',#525);
#446=PLANE('',#530);
#447=PLANE('',#531);
#448=PLANE('',#532);
#449=PLANE('',#537);
#450=PLANE('',#538);
#451=PLANE('',#543);
#452=PLANE('',#544);
#453=PLANE('',#545);
#454=ADVANCED_FACE('',(#50,#39),#431,.T.);
#455=ADVANCED_FACE('',(#51),#432,.T.);
#456=ADVANCED_FACE('',(#52),#433,.T.);
#457=ADVANCED_FACE('',(#53),#434,.T.);
#458=ADVANCED_FACE('',(#54),#435,.T.);
#459=ADVANCED_FACE('',(#55),#436,.T.);
#460=ADVANCED_FACE('',(#56),#437,.T.);
#461=ADVANCED_FACE('',(#57),#438,.T.);
#462=ADVANCED_FACE('',(#58),#439,.T.);
#463=ADVANCED_FACE('',(#59),#440,.T.);
#464=ADVANCED_FACE('',(#60),#441,.T.);
#465=ADVANCED_FACE('',(#61),#442,.T.);
#466=ADVANCED_FACE('',(#62),#443,.T.);
#467=ADVANCED_FACE('',(#63),#15,.F.);
#468=ADVANCED_FACE('',(#64),#16,.F.);
#469=ADVANCED_FACE('',(#65),#444,.T.);
#470=ADVANCED_FACE('',(#66),#445,.T.);
#471=ADVANCED_FACE('',(#67),#17,.F.);
#472=ADVANCED_FACE('',(#68),#18,.F.);
#473=ADVANCED_FACE('',(#69,#40,#41,#42,#43,#44),#446,.T.);
#474=ADVANCED_FACE('',(#70),#447,.T.);
#475=ADVANCED_FACE('',(#71),#448,.T.);
#476=ADVANCED_FACE('',(#72),#19,.F.);
#477=ADVANCED_FACE('',(#73),#20,.F.);
#478=ADVANCED_FACE('',(#74),#449,.T.);
#479=ADVANCED_FACE('',(#75),#450,.T.);
#480=ADVANCED_FACE('',(#76),#21,.F.);
#481=ADVANCED_FACE('',(#77),#22,.F.);
#482=ADVANCED_FACE('',(#78),#451,.T.);
#483=ADVANCED_FACE('',(#79),#452,.T.);
#484=ADVANCED_FACE('',(#80,#45,#46,#47,#48,#49),#453,.T.);
#485=CLOSED_SHELL('',(#454,#455,#456,#457,#458,#459,#460,#461,#462,#463,
#464,#465,#466,#467,#468,#469,#470,#471,#472,#473,#474,#475,#476,#477,#478,
#479,#480,#481,#482,#483,#484));
#486=DERIVED_UNIT_ELEMENT(#488,1.);
#487=DERIVED_UNIT_ELEMENT(#823,-3.);
#488=(
MASS_UNIT()
NAMED_UNIT(*)
SI_UNIT(.KILO.,.GRAM.)
);
#489=DERIVED_UNIT((#486,#487));
#490=MEASURE_REPRESENTATION_ITEM('density measure',
POSITIVE_RATIO_MEASURE(7850.),#489);
#491=PROPERTY_DEFINITION_REPRESENTATION(#496,#493);
#492=PROPERTY_DEFINITION_REPRESENTATION(#497,#494);
#493=REPRESENTATION('material name',(#495),#820);
#494=REPRESENTATION('density',(#490),#820);
#495=DESCRIPTIVE_REPRESENTATION_ITEM('Steel','Steel');
#496=PROPERTY_DEFINITION('material property','material name',#830);
#497=PROPERTY_DEFINITION('material property','density of part',#830);
#498=AXIS2_PLACEMENT_3D('',#686,#546,#547);
#499=AXIS2_PLACEMENT_3D('',#687,#548,#549);
#500=AXIS2_PLACEMENT_3D('',#704,#558,#559);
#501=AXIS2_PLACEMENT_3D('',#710,#563,#564);
#502=AXIS2_PLACEMENT_3D('',#714,#567,#568);
#503=AXIS2_PLACEMENT_3D('',#720,#572,#573);
#504=AXIS2_PLACEMENT_3D('',#724,#576,#577);
#505=AXIS2_PLACEMENT_3D('',#726,#578,#579);
#506=AXIS2_PLACEMENT_3D('',#727,#580,#581);
#507=AXIS2_PLACEMENT_3D('',#729,#582,#583);
#508=AXIS2_PLACEMENT_3D('',#730,#584,#585);
#509=AXIS2_PLACEMENT_3D('',#732,#586,#587);
#510=AXIS2_PLACEMENT_3D('',#733,#588,#589);
#511=AXIS2_PLACEMENT_3D('',#735,#590,#591);
#512=AXIS2_PLACEMENT_3D('',#736,#592,#593);
#513=AXIS2_PLACEMENT_3D('',#738,#594,#595);
#514=AXIS2_PLACEMENT_3D('',#739,#596,#597);
#515=AXIS2_PLACEMENT_3D('',#741,#598,#599);
#516=AXIS2_PLACEMENT_3D('',#742,#600,#601);
#517=AXIS2_PLACEMENT_3D('',#744,#602,#603);
#518=AXIS2_PLACEMENT_3D('',#745,#604,#605);
#519=AXIS2_PLACEMENT_3D('',#747,#606,#607);
#520=AXIS2_PLACEMENT_3D('',#748,#608,#609);
#521=AXIS2_PLACEMENT_3D('',#750,#610,#611);
#522=AXIS2_PLACEMENT_3D('',#752,#613,#614);
#523=AXIS2_PLACEMENT_3D('',#754,#615,#616);
#524=AXIS2_PLACEMENT_3D('',#756,#618,#619);
#525=AXIS2_PLACEMENT_3D('',#760,#622,#623);
#526=AXIS2_PLACEMENT_3D('',#762,#625,#626);
#527=AXIS2_PLACEMENT_3D('',#764,#627,#628);
#528=AXIS2_PLACEMENT_3D('',#766,#630,#631);
#529=AXIS2_PLACEMENT_3D('',#768,#632,#633);
#530=AXIS2_PLACEMENT_3D('',#770,#635,#636);
#531=AXIS2_PLACEMENT_3D('',#779,#641,#642);
#532=AXIS2_PLACEMENT_3D('',#785,#646,#647);
#533=AXIS2_PLACEMENT_3D('',#789,#650,#651);
#534=AXIS2_PLACEMENT_3D('',#791,#652,#653);
#535=AXIS2_PLACEMENT_3D('',#793,#655,#656);
#536=AXIS2_PLACEMENT_3D('',#795,#657,#658);
#537=AXIS2_PLACEMENT_3D('',#797,#660,#661);
#538=AXIS2_PLACEMENT_3D('',#801,#664,#665);
#539=AXIS2_PLACEMENT_3D('',#803,#667,#668);
#540=AXIS2_PLACEMENT_3D('',#805,#669,#670);
#541=AXIS2_PLACEMENT_3D('',#807,#672,#673);
#542=AXIS2_PLACEMENT_3D('',#809,#674,#675);
#543=AXIS2_PLACEMENT_3D('',#811,#677,#678);
#544=AXIS2_PLACEMENT_3D('',#815,#681,#682);
#545=AXIS2_PLACEMENT_3D('',#817,#684,#685);
#546=DIRECTION('axis',(0.,0.,1.));
#547=DIRECTION('refdir',(1.,0.,0.));
#548=DIRECTION('center_axis',(0.,0.,-1.));
#549=DIRECTION('ref_axis',(-1.,0.,0.));
#550=DIRECTION('',(-1.,0.,0.));
#551=DIRECTION('',(0.,1.,0.));
#552=DIRECTION('',(1.,0.,0.));
#553=DIRECTION('',(0.,-1.,0.));
#554=DIRECTION('',(0.,-1.,0.));
#555=DIRECTION('',(1.,0.,0.));
#556=DIRECTION('',(0.,1.,0.));
#557=DIRECTION('',(-1.,0.,0.));
#558=DIRECTION('center_axis',(0.,1.,0.));
#559=DIRECTION('ref_axis',(-1.,0.,0.));
#560=DIRECTION('',(0.,0.,1.));
#561=DIRECTION('',(-1.,0.,0.));
#562=DIRECTION('',(0.,0.,1.));
#563=DIRECTION('center_axis',(1.,0.,0.));
#564=DIRECTION('ref_axis',(0.,1.,0.));
#565=DIRECTION('',(0.,0.,1.));
#566=DIRECTION('',(0.,1.,0.));
#567=DIRECTION('center_axis',(-1.,0.,0.));
#568=DIRECTION('ref_axis',(0.,-1.,0.));
#569=DIRECTION('',(0.,0.,1.));
#570=DIRECTION('',(0.,-1.,0.));
#571=DIRECTION('',(0.,0.,1.));
#572=DIRECTION('center_axis',(0.,-1.,0.));
#573=DIRECTION('ref_axis',(1.,0.,0.));
#574=DIRECTION('',(0.,0.,1.));
#575=DIRECTION('',(1.,0.,0.));
#576=DIRECTION('center_axis',(0.,0.,1.));
#577=DIRECTION('ref_axis',(1.,0.,0.));
#578=DIRECTION('center_axis',(0.,0.,-1.));
#579=DIRECTION('ref_axis',(1.,0.,0.));
#580=DIRECTION('center_axis',(0.,0.,1.));
#581=DIRECTION('ref_axis',(1.,0.,0.));
#582=DIRECTION('center_axis',(0.,0.,-1.));
#583=DIRECTION('ref_axis',(1.,0.,0.));
#584=DIRECTION('center_axis',(0.,0.,1.));
#585=DIRECTION('ref_axis',(1.,0.,0.));
#586=DIRECTION('center_axis',(0.,0.,-1.));
#587=DIRECTION('ref_axis',(1.,0.,0.));
#588=DIRECTION('center_axis',(0.,0.,1.));
#589=DIRECTION('ref_axis',(1.,0.,0.));
#590=DIRECTION('center_axis',(0.,0.,-1.));
#591=DIRECTION('ref_axis',(1.,0.,0.));
#592=DIRECTION('center_axis',(0.,0.,1.));
#593=DIRECTION('ref_axis',(1.,0.,0.));
#594=DIRECTION('center_axis',(0.,0.,-1.));
#595=DIRECTION('ref_axis',(1.,0.,0.));
#596=DIRECTION('center_axis',(0.,0.,1.));
#597=DIRECTION('ref_axis',(1.,0.,0.));
#598=DIRECTION('center_axis',(0.,0.,-1.));
#599=DIRECTION('ref_axis',(1.,0.,0.));
#600=DIRECTION('center_axis',(0.,0.,1.));
#601=DIRECTION('ref_axis',(1.,0.,0.));
#602=DIRECTION('center_axis',(0.,0.,-1.));
#603=DIRECTION('ref_axis',(1.,0.,0.));
#604=DIRECTION('center_axis',(0.,0.,1.));
#605=DIRECTION('ref_axis',(1.,0.,0.));
#606=DIRECTION('center_axis',(0.,0.,-1.));
#607=DIRECTION('ref_axis',(1.,0.,0.));
#608=DIRECTION('center_axis',(0.,0.,1.));
#609=DIRECTION('ref_axis',(1.,0.,0.));
#610=DIRECTION('center_axis',(0.,0.,-1.));
#611=DIRECTION('ref_axis',(1.,0.,0.));
#612=DIRECTION('',(0.,0.,-1.));
#613=DIRECTION('center_axis',(0.,0.,1.));
#614=DIRECTION('ref_axis',(1.,0.,0.));
#615=DIRECTION('center_axis',(0.,0.,-1.));
#616=DIRECTION('ref_axis',(1.,0.,0.));
#617=DIRECTION('',(0.,0.,-1.));
#618=DIRECTION('center_axis',(-1.,0.,0.));
#619=DIRECTION('ref_axis',(0.,-1.,0.));
#620=DIRECTION('',(0.,-1.,0.));
#621=DIRECTION('',(0.,0.,1.));
#622=DIRECTION('center_axis',(0.,-1.,0.));
#623=DIRECTION('ref_axis',(1.,0.,0.));
#624=DIRECTION('',(1.,0.,0.));
#625=DIRECTION('center_axis',(0.,0.,1.));
#626=DIRECTION('ref_axis',(1.,0.,0.));
#627=DIRECTION('center_axis',(0.,0.,-1.));
#628=DIRECTION('ref_axis',(1.,0.,0.));
#629=DIRECTION('',(0.,0.,-1.));
#630=DIRECTION('center_axis',(0.,0.,1.));
#631=DIRECTION('ref_axis',(1.,0.,0.));
#632=DIRECTION('center_axis',(0.,0.,-1.));
#633=DIRECTION('ref_axis',(1.,0.,0.));
#634=DIRECTION('',(0.,0.,-1.));
#635=DIRECTION('center_axis',(0.,0.,1.));
#636=DIRECTION('ref_axis',(1.,0.,0.));
#637=DIRECTION('',(0.,1.,0.));
#638=DIRECTION('',(-1.,0.,0.));
#639=DIRECTION('',(0.,-1.,0.));
#640=DIRECTION('',(1.,0.,0.));
#641=DIRECTION('center_axis',(-1.,0.,0.));
#642=DIRECTION('ref_axis',(0.,-1.,0.));
#643=DIRECTION('',(0.,0.,1.));
#644=DIRECTION('',(0.,-1.,0.));
#645=DIRECTION('',(0.,0.,1.));
#646=DIRECTION('center_axis',(0.,1.,0.));
#647=DIRECTION('ref_axis',(-1.,0.,0.));
#648=DIRECTION('',(0.,0.,1.));
#649=DIRECTION('',(-1.,0.,0.));
#650=DIRECTION('center_axis',(0.,0.,1.));
#651=DIRECTION('ref_axis',(1.,0.,0.));
#652=DIRECTION('center_axis',(0.,0.,-1.));
#653=DIRECTION('ref_axis',(1.,0.,0.));
#654=DIRECTION('',(0.,0.,-1.));
#655=DIRECTION('center_axis',(0.,0.,1.));
#656=DIRECTION('ref_axis',(1.,0.,0.));
#657=DIRECTION('center_axis',(0.,0.,-1.));
#658=DIRECTION('ref_axis',(1.,0.,0.));
#659=DIRECTION('',(0.,0.,-1.));
#660=DIRECTION('center_axis',(0.,-1.,0.));
#661=DIRECTION('ref_axis',(1.,0.,0.));
#662=DIRECTION('',(1.,0.,0.));
#663=DIRECTION('',(0.,0.,1.));
#664=DIRECTION('center_axis',(1.,0.,0.));
#665=DIRECTION('ref_axis',(0.,1.,0.));
#666=DIRECTION('',(0.,1.,0.));
#667=DIRECTION('center_axis',(0.,0.,1.));
#668=DIRECTION('ref_axis',(1.,0.,0.));
#669=DIRECTION('center_axis',(0.,0.,-1.));
#670=DIRECTION('ref_axis',(1.,0.,0.));
#671=DIRECTION('',(0.,0.,-1.));
#672=DIRECTION('center_axis',(0.,0.,1.));
#673=DIRECTION('ref_axis',(1.,0.,0.));
#674=DIRECTION('center_axis',(0.,0.,-1.));
#675=DIRECTION('ref_axis',(1.,0.,0.));
#676=DIRECTION('',(0.,0.,-1.));
#677=DIRECTION('center_axis',(0.,1.,0.));
#678=DIRECTION('ref_axis',(-1.,0.,0.));
#679=DIRECTION('',(-1.,0.,0.));
#680=DIRECTION('',(0.,0.,1.));
#681=DIRECTION('center_axis',(1.,0.,0.));
#682=DIRECTION('ref_axis',(0.,1.,0.));
#683=DIRECTION('',(0.,1.,0.));
#684=DIRECTION('center_axis',(0.,0.,1.));
#685=DIRECTION('ref_axis',(1.,0.,0.));
#686=CARTESIAN_POINT('',(0.,0.,0.));
#687=CARTESIAN_POINT('Origin',(45.33435,40.08595,0.));
#688=CARTESIAN_POINT('',(105.6687,-15.,0.));
#689=CARTESIAN_POINT('',(-15.,-15.,0.));
#690=CARTESIAN_POINT('',(15.167175,-15.,0.));
#691=CARTESIAN_POINT('',(-15.,95.1719,0.));
#692=CARTESIAN_POINT('',(-15.,67.628925,0.));
#693=CARTESIAN_POINT('',(105.6687,95.1719,0.));
#694=CARTESIAN_POINT('',(75.501525,95.1719,0.));
#695=CARTESIAN_POINT('',(105.6687,12.542975,0.));
#696=CARTESIAN_POINT('',(0.,80.1719,0.));
#697=CARTESIAN_POINT('',(0.,0.,0.));
#698=CARTESIAN_POINT('',(0.,20.042975,0.));
#699=CARTESIAN_POINT('',(90.6687,0.,0.));
#700=CARTESIAN_POINT('',(68.001525,0.,0.));
#701=CARTESIAN_POINT('',(90.6687,80.1719,0.));
#702=CARTESIAN_POINT('',(90.6687,60.128925,0.));
#703=CARTESIAN_POINT('',(22.667175,80.1719,0.));
#704=CARTESIAN_POINT('Origin',(90.6687,0.,0.));
#705=CARTESIAN_POINT('',(0.,0.,5.34));
#706=CARTESIAN_POINT('',(0.,0.,0.));
#707=CARTESIAN_POINT('',(90.6687,0.,5.34));
#708=CARTESIAN_POINT('',(0.,0.,5.34));
#709=CARTESIAN_POINT('',(90.6687,0.,0.));
#710=CARTESIAN_POINT('Origin',(0.,0.,0.));
#711=CARTESIAN_POINT('',(0.,80.1719,5.34));
#712=CARTESIAN_POINT('',(0.,80.1719,0.));
#713=CARTESIAN_POINT('',(0.,80.1719,5.34));
#714=CARTESIAN_POINT('Origin',(-15.,95.1719,0.));
#715=CARTESIAN_POINT('',(-15.,-15.,8.34));
#716=CARTESIAN_POINT('',(-15.,-15.,0.));
#717=CARTESIAN_POINT('',(-15.,95.1719,8.34));
#718=CARTESIAN_POINT('',(-15.,-15.,8.34));
#719=CARTESIAN_POINT('',(-15.,95.1719,0.));
#720=CARTESIAN_POINT('Origin',(-15.,-15.,0.));
#721=CARTESIAN_POINT('',(105.6687,-15.,8.34));
#722=CARTESIAN_POINT('',(105.6687,-15.,0.));
#723=CARTESIAN_POINT('',(105.6687,-15.,8.34));
#724=CARTESIAN_POINT('Origin',(93.1687,-2.5,2.2));
#725=CARTESIAN_POINT('',(91.4187,-2.5,2.2));
#726=CARTESIAN_POINT('Origin',(93.1687,-2.5,2.2));
#727=CARTESIAN_POINT('Origin',(-2.5,-2.5,2.2));
#728=CARTESIAN_POINT('',(-4.25,-2.5,2.2));
#729=CARTESIAN_POINT('Origin',(-2.5,-2.5,2.2));
#730=CARTESIAN_POINT('Origin',(93.1687,82.6719,2.2));
#731=CARTESIAN_POINT('',(91.4187,82.6719,2.2));
#732=CARTESIAN_POINT('Origin',(93.1687,82.6719,2.2));
#733=CARTESIAN_POINT('Origin',(-2.5,82.6719,2.2));
#734=CARTESIAN_POINT('',(-4.25,82.6719,2.2));
#735=CARTESIAN_POINT('Origin',(-2.5,82.6719,2.2));
#736=CARTESIAN_POINT('Origin',(-10.,-10.,2.3));
#737=CARTESIAN_POINT('',(-12.1,-10.,2.3));
#738=CARTESIAN_POINT('Origin',(-10.,-10.,2.3));
#739=CARTESIAN_POINT('Origin',(-10.,90.1719,2.3));
#740=CARTESIAN_POINT('',(-12.1,90.1719,2.3));
#741=CARTESIAN_POINT('Origin',(-10.,90.1719,2.3));
#742=CARTESIAN_POINT('Origin',(100.6687,-10.,2.3));
#743=CARTESIAN_POINT('',(98.5687,-10.,2.3));
#744=CARTESIAN_POINT('Origin',(100.6687,-10.,2.3));
#745=CARTESIAN_POINT('Origin',(100.6687,90.1719,2.3));
#746=CARTESIAN_POINT('',(98.5687,90.1719,2.3));
#747=CARTESIAN_POINT('Origin',(100.6687,90.1719,2.3));
#748=CARTESIAN_POINT('Origin',(-2.5,-2.5,0.));
#749=CARTESIAN_POINT('',(-4.25,-2.5,5.34));
#750=CARTESIAN_POINT('Origin',(-2.5,-2.5,5.34));
#751=CARTESIAN_POINT('',(-4.25,-2.5,0.));
#752=CARTESIAN_POINT('Origin',(93.1687,82.6719,0.));
#753=CARTESIAN_POINT('',(91.4187,82.6719,5.34));
#754=CARTESIAN_POINT('Origin',(93.1687,82.6719,5.34));
#755=CARTESIAN_POINT('',(91.4187,82.6719,0.));
#756=CARTESIAN_POINT('Origin',(90.6687,80.1719,0.));
#757=CARTESIAN_POINT('',(90.6687,80.1719,5.34));
#758=CARTESIAN_POINT('',(90.6687,0.,5.34));
#759=CARTESIAN_POINT('',(90.6687,80.1719,0.));
#760=CARTESIAN_POINT('Origin',(0.,80.1719,0.));
#761=CARTESIAN_POINT('',(90.6687,80.1719,5.34));
#762=CARTESIAN_POINT('Origin',(93.1687,-2.5,0.));
#763=CARTESIAN_POINT('',(91.4187,-2.5,5.34));
#764=CARTESIAN_POINT('Origin',(93.1687,-2.5,5.34));
#765=CARTESIAN_POINT('',(91.4187,-2.5,0.));
#766=CARTESIAN_POINT('Origin',(-2.5,82.6719,0.));
#767=CARTESIAN_POINT('',(-4.25,82.6719,5.34));
#768=CARTESIAN_POINT('Origin',(-2.5,82.6719,5.34));
#769=CARTESIAN_POINT('',(-4.25,82.6719,0.));
#770=CARTESIAN_POINT('Origin',(45.33435,40.08595,5.34));
#771=CARTESIAN_POINT('',(-5.,-5.,5.34));
#772=CARTESIAN_POINT('',(-5.,85.1719,5.34));
#773=CARTESIAN_POINT('',(-5.,17.542975,5.34));
#774=CARTESIAN_POINT('',(95.6687,-5.,5.34));
#775=CARTESIAN_POINT('',(70.501525,-5.,5.34));
#776=CARTESIAN_POINT('',(95.6687,85.1719,5.34));
#777=CARTESIAN_POINT('',(95.6687,62.628925,5.34));
#778=CARTESIAN_POINT('',(20.167175,85.1719,5.34));
#779=CARTESIAN_POINT('Origin',(95.6687,85.1719,0.));
#780=CARTESIAN_POINT('',(95.6687,-5.,8.34));
#781=CARTESIAN_POINT('',(95.6687,-5.,0.));
#782=CARTESIAN_POINT('',(95.6687,85.1719,8.34));
#783=CARTESIAN_POINT('',(95.6687,-5.,8.34));
#784=CARTESIAN_POINT('',(95.6687,85.1719,0.));
#785=CARTESIAN_POINT('Origin',(95.6687,-5.,0.));
#786=CARTESIAN_POINT('',(-5.,-5.,8.34));
#787=CARTESIAN_POINT('',(-5.,-5.,0.));
#788=CARTESIAN_POINT('',(-5.,-5.,8.34));
#789=CARTESIAN_POINT('Origin',(-10.,-10.,0.));
#790=CARTESIAN_POINT('',(-12.1,-10.,8.34));
#791=CARTESIAN_POINT('Origin',(-10.,-10.,8.34));
#792=CARTESIAN_POINT('',(-12.1,-10.,0.));
#793=CARTESIAN_POINT('Origin',(-10.,90.1719,0.));
#794=CARTESIAN_POINT('',(-12.1,90.1719,8.34));
#795=CARTESIAN_POINT('Origin',(-10.,90.1719,8.34));
#796=CARTESIAN_POINT('',(-12.1,90.1719,0.));
#797=CARTESIAN_POINT('Origin',(-5.,85.1719,0.));
#798=CARTESIAN_POINT('',(-5.,85.1719,8.34));
#799=CARTESIAN_POINT('',(95.6687,85.1719,8.34));
#800=CARTESIAN_POINT('',(-5.,85.1719,0.));
#801=CARTESIAN_POINT('Origin',(-5.,-5.,0.));
#802=CARTESIAN_POINT('',(-5.,85.1719,8.34));
#803=CARTESIAN_POINT('Origin',(100.6687,-10.,0.));
#804=CARTESIAN_POINT('',(98.5687,-10.,8.34));
#805=CARTESIAN_POINT('Origin',(100.6687,-10.,8.34));
#806=CARTESIAN_POINT('',(98.5687,-10.,0.));
#807=CARTESIAN_POINT('Origin',(100.6687,90.1719,0.));
#808=CARTESIAN_POINT('',(98.5687,90.1719,8.34));
#809=CARTESIAN_POINT('Origin',(100.6687,90.1719,8.34));
#810=CARTESIAN_POINT('',(98.5687,90.1719,0.));
#811=CARTESIAN_POINT('Origin',(105.6687,95.1719,0.));
#812=CARTESIAN_POINT('',(105.6687,95.1719,8.34));
#813=CARTESIAN_POINT('',(-15.,95.1719,8.34));
#814=CARTESIAN_POINT('',(105.6687,95.1719,0.));
#815=CARTESIAN_POINT('Origin',(105.6687,-15.,0.));
#816=CARTESIAN_POINT('',(105.6687,95.1719,8.34));
#817=CARTESIAN_POINT('Origin',(45.33435,40.08595,8.34));
#818=UNCERTAINTY_MEASURE_WITH_UNIT(LENGTH_MEASURE(0.01),#822,
'DISTANCE_ACCURACY_VALUE',
'Maximum model space distance between geometric entities at asserted c
onnectivities');
#819=UNCERTAINTY_MEASURE_WITH_UNIT(LENGTH_MEASURE(0.01),#822,
'DISTANCE_ACCURACY_VALUE',
'Maximum model space distance between geometric entities at asserted c
onnectivities');
#820=(
GEOMETRIC_REPRESENTATION_CONTEXT(3)
GLOBAL_UNCERTAINTY_ASSIGNED_CONTEXT((#818))
GLOBAL_UNIT_ASSIGNED_CONTEXT((#822,#824,#825))
REPRESENTATION_CONTEXT('','3D')
);
#821=(
GEOMETRIC_REPRESENTATION_CONTEXT(3)
GLOBAL_UNCERTAINTY_ASSIGNED_CONTEXT((#819))
GLOBAL_UNIT_ASSIGNED_CONTEXT((#822,#824,#825))
REPRESENTATION_CONTEXT('','3D')
);
#822=(
LENGTH_UNIT()
NAMED_UNIT(*)
SI_UNIT(.MILLI.,.METRE.)
);
#823=(
LENGTH_UNIT()
NAMED_UNIT(*)
SI_UNIT($,.METRE.)
);
#824=(
NAMED_UNIT(*)
PLANE_ANGLE_UNIT()
SI_UNIT($,.RADIAN.)
);
#825=(
NAMED_UNIT(*)
SI_UNIT($,.STERADIAN.)
SOLID_ANGLE_UNIT()
);
#826=SHAPE_DEFINITION_REPRESENTATION(#827,#828);
#827=PRODUCT_DEFINITION_SHAPE('',$,#830);
#828=SHAPE_REPRESENTATION('',(#498),#820);
#829=PRODUCT_DEFINITION_CONTEXT('part definition',#834,'design');
#830=PRODUCT_DEFINITION('2026-06-29-09-11-59-755','Top',#831,#829);
#831=PRODUCT_DEFINITION_FORMATION('',$,#836);
#832=PRODUCT_RELATED_PRODUCT_CATEGORY('Top','Top',(#836));
#833=APPLICATION_PROTOCOL_DEFINITION('international standard',
'automotive_design',2009,#834);
#834=APPLICATION_CONTEXT(
'Core Data for Automotive Mechanical Design Process');
#835=PRODUCT_CONTEXT('part definition',#834,'mechanical');
#836=PRODUCT('2026-06-29-09-11-59-755','Top',$,(#835));
#837=PRESENTATION_STYLE_ASSIGNMENT((#838));
#838=SURFACE_STYLE_USAGE(.BOTH.,#839);
#839=SURFACE_SIDE_STYLE('',(#840));
#840=SURFACE_STYLE_FILL_AREA(#841);
#841=FILL_AREA_STYLE('Steel - Satin',(#842));
#842=FILL_AREA_STYLE_COLOUR('Steel - Satin',#843);
#843=COLOUR_RGB('Steel - Satin',0.627450980392157,0.627450980392157,0.627450980392157);
ENDSEC;
END-ISO-10303-21;
